<?xml version="1.0" encoding="UTF-8"?>
<svg version="1.1" xmlns="http://www.w3.org/2000/svg" width="748" height="217">
<path d="M0 0 C3.42861143 3.52657176 4.06766077 6.07158094 4.5625 10.9375 C4.37638998 17.95650653 1.20743348 25.36950911 -3.8125 30.25 C-8.10994267 33.48691497 -12.26630678 36.25 -17.8125 36.25 C-19.25 35 -19.25 35 -20.8125 33.25 C-21.9675 32.79625 -23.1225 32.3425 -24.3125 31.875 C-28.25745712 30.04341277 -29.3206633 29.28673459 -30.8125 25.25 C-31.90059754 17.37278681 -29.98198932 9.84381096 -25.375 3.375 C-19.24298578 -3.21691528 -7.51346581 -4.6750454 0 0 Z M-10.3125 2.375 C-15.20404896 8.0002813 -16.1865293 12.01876683 -15.8125 19.25 C-13.46716049 20.01956136 -13.46716049 20.01956136 -10.8125 20.25 C-8.9770201 18.91621425 -8.9770201 18.91621425 -7.8125 17.25 C-9.1325 16.92 -10.4525 16.59 -11.8125 16.25 C-12 12.875 -12 12.875 -11.8125 9.25 C-8.58458445 7.0980563 -7.52849191 7.04913557 -3.8125 7.25 C-2.38336093 15.15331126 -2.38336093 15.15331126 -3.9375 19.125 C-6.11726447 21.59539974 -7.76243067 22.97322679 -10.8125 24.25 C-14.22714098 24.18170718 -16.0502954 23.8851705 -18.6875 21.6875 C-20.30912402 18.1739813 -20.46284111 15.00301018 -19.8125 11.25 C-18.87603857 9.02590411 -17.81809371 6.99009441 -16.58984375 4.9140625 C-16.20505859 4.09035156 -16.20505859 4.09035156 -15.8125 3.25 C-16.1425 2.59 -16.4725 1.93 -16.8125 1.25 C-22.32125573 6.9548603 -25.77993119 12.37051263 -26.25 20.4375 C-25.75963254 24.71070213 -24.86133284 26.29083871 -21.8125 29.25 C-18.70296621 30.8047669 -16.24983239 30.53644437 -12.8125 30.25 C-6.99559562 27.51961631 -3.7987054 22.77496635 -0.8125 17.25 C0.58032402 12.87255308 0.91295937 8.31476896 -0.625 3.9375 C-1.87217992 1.94932522 -1.87217992 1.94932522 -4.8125 0.25 C-7.97838054 -0.07382421 -7.97838054 -0.07382421 -10.3125 2.375 Z " fill="#04295A" transform="translate(652.8125,150.75)"/>
<path d="M0 0 C1.32 0 2.64 0 4 0 C4.66 3.63 5.32 7.26 6 11 C7.3921875 10.2575 7.3921875 10.2575 8.8125 9.5 C12 8 12 8 15 8 C14.75 10.375 14.75 10.375 14 13 C11.9375 14.3125 11.9375 14.3125 10 15 C10 15.66 10 16.32 10 17 C12.64 18.32 15.28 19.64 18 21 C18 21.99 18 22.98 18 24 C13.32538149 24.32613618 10.83325617 23.70582788 7 21 C7.66 24.3 8.32 27.6 9 31 C7.68 31.33 6.36 31.66 5 32 C3.80712589 28.12315913 3 25.08378077 3 21 C2.278125 21.495 1.55625 21.99 0.8125 22.5 C-2.14848659 24.07919285 -3.71253029 24.28178312 -7 24 C-6.875 22.1875 -6.875 22.1875 -6 20 C-2.9375 18.25 -2.9375 18.25 0 17 C-0.6496875 16.60167969 -1.299375 16.20335937 -1.96875 15.79296875 C-3.22171875 14.99826172 -3.22171875 14.99826172 -4.5 14.1875 C-5.3353125 13.66542969 -6.170625 13.14335937 -7.03125 12.60546875 C-7.6809375 12.07566406 -8.330625 11.54585937 -9 11 C-9 10.01 -9 9.02 -9 8 C-4.45804635 7.62150386 -3.9855604 8.0108297 0 11 C0 7.37 0 3.74 0 0 Z " fill="#1E384E" transform="translate(9,130)"/>
<path d="M0 0 C4 1 4 1 5.75 3.4375 C7 6 7 6 7 8 C11.29 8 15.58 8 20 8 C20.33 9.32 20.66 10.64 21 12 C20.05125 12.433125 19.1025 12.86625 18.125 13.3125 C14.79958063 14.79302201 14.79958063 14.79302201 13 18 C12.75812349 20.74518321 12.75812349 20.74518321 12.875 23.6875 C12.90207031 25.17830078 12.90207031 25.17830078 12.9296875 26.69921875 C12.95289063 27.45847656 12.97609375 28.21773437 13 29 C11.68 29.33 10.36 29.66 9 30 C8.443125 28.88625 7.88625 27.7725 7.3125 26.625 C5.90145179 24.19622712 5.12723369 23.08482246 2.75 21.5 C-1.06765568 20.80588079 -4.17678183 21.35199692 -8 22 C-8.33 20.68 -8.66 19.36 -9 18 C-4.25 15 -4.25 15 -2 15 C-2 14.34 -2 13.68 -2 13 C-1.34 13 -0.68 13 0 13 C0 8.71 0 4.42 0 0 Z M4 11 C3.34 12.98 2.68 14.96 2 17 C3.98 17.66 5.96 18.32 8 19 C8.66 17.02 9.32 15.04 10 13 C8.02 12.34 6.04 11.68 4 11 Z " fill="#1E384F" transform="translate(727,73)"/>
<path d="M0 0 C0 1.98 0 3.96 0 6 C4.95 5.67 9.9 5.34 15 5 C15.66 6.65 16.32 8.3 17 10 C11.14053185 15.02240127 6.98456324 16.33135044 -0.6328125 16.20703125 C-3.36930116 15.96770138 -5.49989657 15.10298681 -8 14 C-10.24240782 14.28739925 -10.24240782 14.28739925 -12 15 C-15.53286034 10.43672206 -15.32374517 6.50366792 -15 1 C-9.9752761 0.37470103 -5.07471573 -0.13012092 0 0 Z M-13 4 C-12.74438677 6.3431213 -12.40729228 8.67843403 -12 11 C-11.34 11.33 -10.68 11.66 -10 12 C-10 11.01 -10 10.02 -10 9 C-9.50371094 9.3609375 -9.00742187 9.721875 -8.49609375 10.09375 C-3.83967541 13.27460504 -0.8009039 14.82870056 5 14 C7.89121473 13.22797313 10.25430891 12.27816654 13 11 C13.33 10.01 13.66 9.02 14 8 C12.865625 8.350625 11.73125 8.70125 10.5625 9.0625 C5.86117438 10.26516469 1.7349445 9.81107846 -3 9 C-3 7.35 -3 5.7 -3 4 C-6.3 4 -9.6 4 -13 4 Z " fill="#042758" transform="translate(720,187)"/>
<path d="M0 0 C0.99 0 1.98 0 3 0 C3.226875 0.639375 3.45375 1.27875 3.6875 1.9375 C4.85250896 4.27193661 4.85250896 4.27193661 7.625 4.75 C8.40875 4.8325 9.1925 4.915 10 5 C10 5.99 10 6.98 10 8 C9.505 8.45375 9.01 8.9075 8.5 9.375 C6.72110101 10.96224523 6.72110101 10.96224523 6.8125 13.6875 C6.874375 14.450625 6.93625 15.21375 7 16 C6.01 16.33 5.02 16.66 4 17 C3.608125 16.360625 3.21625 15.72125 2.8125 15.0625 C0.61527704 12.56221181 -0.75791433 12.35049575 -4 12 C-3.36870988 9.05397944 -2.34200091 6.68400182 -1 4 C-0.63215869 2.6757713 -0.28797019 1.34386088 0 0 Z " fill="#1F3950" transform="translate(76,50)"/>
<path d="M0 0 C2.31 0 4.62 0 7 0 C5.68 0.99 4.36 1.98 3 3 C3.33 5.31 3.66 7.62 4 10 C4.33 9.34 4.66 8.68 5 8 C9 10 9 10 10.8125 11.125 C16.12349078 13.24939631 21.17288108 11.99635243 26.265625 9.93359375 C28.54138722 8.7085776 29.75936108 7.24865805 31 5 C31.33 6.32 31.66 7.64 32 9 C26.14053185 14.02240127 21.98456324 15.33135044 14.3671875 15.20703125 C11.63069884 14.96770138 9.50010343 14.10298681 7 13 C4.75759218 13.28739925 4.75759218 13.28739925 3 14 C-0.53286034 9.43672206 -0.32374517 5.50366792 0 0 Z " fill="#032450" transform="translate(705,188)"/>
<path d="M0 0 C0 1.98 0 3.96 0 6 C-0.66 6 -1.32 6 -2 6 C-2 5.34 -2 4.68 -2 4 C-5.3 4 -8.6 4 -12 4 C-12.33 3.34 -12.66 2.68 -13 2 C-8.46298506 0.54815522 -4.81938524 -0.23509196 0 0 Z " fill="#042C64" transform="translate(720,187)"/>
<path d="M0 0 C10.74259681 2.70615034 10.74259681 2.70615034 14 7 C8.72250715 6.46148032 4.74354436 5.22656164 0 3 C0 2.01 0 1.02 0 0 Z " fill="#03234E" transform="translate(8,26)"/>
<path d="M0 0 C3.4087928 1.3984791 4.87393835 2.85006933 6.75 6 C7.17796875 6.70125 7.6059375 7.4025 8.046875 8.125 C9 10 9 10 9 12 C4.58848955 10.52949652 2.14860084 6.95377777 0 3 C0 2.01 0 1.02 0 0 Z " fill="#03224C" transform="translate(17,15)"/>
<path d="M0 0 C0.99 0 1.98 0 3 0 C3 4.95 3 9.9 3 15 C2.34 14.67 1.68 14.34 1 14 C-0.41904116 9.45906828 -0.09226843 4.7056901 0 0 Z " fill="#03224C" transform="translate(30,12)"/>
</svg>
