<svg width="90" height="75" viewBox="0 0 90 75" fill="none" xmlns="http://www.w3.org/2000/svg">
<path d="M51.3916 39.0876L51.4831 39.2543C51.4831 39.3543 51.5496 39.3626 51.6245 39.321C51.8241 39.4793 51.9988 39.2793 52.1818 39.3876C52.3648 39.496 52.2567 39.671 52.4064 39.621C52.5561 39.571 52.7058 39.696 52.8389 39.7377C52.8593 39.8518 52.914 39.9569 52.9958 40.0389C53.0776 40.1209 53.1825 40.1757 53.2964 40.1961C53.2964 40.1961 53.2964 40.3128 53.3547 40.3794C53.4345 40.3654 53.5161 40.3654 53.5959 40.3794C53.7706 40.4545 53.9453 40.3795 54.1116 40.4295C54.278 40.4795 54.2946 40.2711 54.436 40.3294C54.5434 40.3831 54.6585 40.4196 54.7771 40.4378C54.8188 40.4454 54.8619 40.4389 54.8996 40.4193C54.9372 40.3996 54.9673 40.3681 54.985 40.3294C55.1847 40.2544 55.4509 40.2294 55.6755 40.1628C55.9243 40.0935 56.1843 40.0737 56.4407 40.1044C56.6237 40.0211 56.6736 39.8044 56.8982 39.746C57.1228 39.6877 57.3973 39.921 57.6469 39.746C57.7716 39.571 57.8465 39.3876 57.9796 39.3126C58.1176 39.227 58.2388 39.1169 58.3373 38.9876C58.3531 38.9638 58.3735 38.9436 58.3974 38.9281C58.4213 38.9126 58.4481 38.9022 58.4762 38.8975C58.5043 38.8928 58.533 38.894 58.5606 38.9009C58.5882 38.9077 58.6141 38.9202 58.6367 38.9376C58.8364 39.0459 58.9029 39.0209 59.0443 38.8376L59.2024 38.5875C59.359 38.6173 59.5199 38.6173 59.6765 38.5875C59.856 38.5153 60.0117 38.394 60.1257 38.2375C60.252 38.0393 60.4387 37.8873 60.6581 37.8041C60.7532 37.7456 60.8449 37.6816 60.9326 37.6124C60.9326 37.479 60.9326 37.329 60.9326 37.2373C60.9326 37.1456 60.9326 36.8539 60.9326 36.6539C60.9326 36.4539 61.049 36.4372 61.1738 36.3788C61.2986 36.3205 61.2154 36.2372 61.232 36.1621L61.4733 36.0205L61.5315 35.6871L62.0722 35.3787C62.2219 35.287 62.3883 35.2453 62.4299 35.0036C62.4299 34.9203 62.5879 34.8369 62.6544 34.7619C62.721 34.6869 62.8042 34.6202 62.879 34.5369C62.9955 34.3944 63.0933 34.2375 63.1702 34.0702C63.0787 33.8368 63.0787 33.8451 63.1203 33.6784C63.1452 33.4931 63.1452 33.3053 63.1203 33.12C63.1687 33.1073 63.2139 33.0842 63.2527 33.0524C63.2915 33.0206 63.323 32.9809 63.3451 32.9358C63.3671 32.8907 63.3793 32.8414 63.3807 32.7913C63.3821 32.7411 63.3727 32.6912 63.3532 32.6449C63.3532 32.6033 63.3532 32.5533 63.3532 32.5033C63.6039 32.3538 63.8455 32.1896 64.0769 32.0115C64.3787 32.1476 64.6589 32.3273 64.9087 32.5449C65.0508 32.6907 65.1577 32.8672 65.2211 33.0608C65.2846 33.2544 65.3029 33.46 65.2747 33.6618V33.9701L65.4577 34.2452C65.4034 34.4637 65.3339 34.6782 65.2497 34.887C65.0276 35.3976 64.6851 35.8467 64.2515 36.1955C64.0935 36.3038 64.1351 36.3455 64.1268 36.6872C64.1102 36.9101 64.1385 37.134 64.21 37.3457L63.8024 37.8791C63.7801 38.0612 63.7215 38.2369 63.6301 38.3959C63.5386 38.5548 63.4162 38.6937 63.27 38.8042C63.111 38.9149 62.9775 39.0585 62.8785 39.2253C62.7794 39.3921 62.7173 39.5782 62.696 39.771C62.7543 39.8377 62.879 39.8794 62.8541 39.9544C62.837 40.2479 62.7515 40.5333 62.6045 40.7878C62.3641 40.9944 62.0795 41.1427 61.7727 41.2212C61.5429 41.2572 61.3273 41.3552 61.1488 41.5046C61.0427 41.6227 60.8983 41.6994 60.7413 41.7213C60.5622 41.7186 60.3848 41.7561 60.2222 41.8311C60.0595 41.9061 59.9157 42.0167 59.8013 42.1547C59.7472 42.2109 59.6804 42.2531 59.6066 42.2778C59.5327 42.3025 59.4539 42.3088 59.3771 42.2964L59.4353 42.2464V42.3047C59.2689 42.3047 59.0859 42.3047 58.9778 42.5298C58.9778 42.5714 58.8697 42.6215 58.8031 42.6548C58.4704 42.8298 58.1127 42.9632 57.7384 43.1299C57.6997 43.135 57.6606 43.135 57.6219 43.1299C57.2622 43.0531 56.887 43.1093 56.5655 43.2882C56.2462 43.3961 55.9176 43.4742 55.5839 43.5216L55.3677 43.3882H55.4509C55.2161 43.3587 54.9786 43.3587 54.7438 43.3882C54.6348 43.4176 54.5201 43.4176 54.4111 43.3882C54.2428 43.2948 54.0544 43.2433 53.8621 43.2382C53.6292 43.2382 53.546 43.0132 53.2881 43.0215C53.2586 43.0633 53.2208 43.0986 53.177 43.1253C53.1333 43.1519 53.0846 43.1692 53.034 43.1763C52.9833 43.1833 52.9317 43.1799 52.8825 43.1661C52.8332 43.1524 52.7872 43.1287 52.7474 43.0965C52.4896 42.9465 52.3981 43.1382 52.2567 43.0965L51.4248 42.4964C51.316 42.426 51.1986 42.37 51.0755 42.3297L50.4266 42.113C50.2951 42.0646 50.1506 42.0646 50.0191 42.113C49.8111 42.2297 49.5782 42.113 49.3619 41.9797C49.2421 41.8959 49.1003 41.8495 48.9543 41.8463C48.7576 41.8419 48.5644 41.7935 48.3887 41.7047C47.9811 41.4629 47.6068 41.1712 47.1825 40.9629C47.0583 40.8821 46.9462 40.7839 46.8498 40.6712L46.6169 40.4378C46.2509 40.5045 46.2426 40.5128 46.018 40.2378L45.835 40.0127C45.835 39.9711 45.7601 39.9461 45.7268 39.9127C45.6936 39.8794 45.5272 39.9544 45.3858 39.8294C45.2444 39.7043 45.3026 39.7294 45.2943 39.6793C45.2438 39.5328 45.1649 39.3977 45.0622 39.2818C44.9594 39.166 44.8347 39.0716 44.6954 39.0042C44.3474 38.8077 44.0597 38.5195 43.8636 38.1708C43.7388 37.9041 43.431 37.7957 43.2314 37.5957C42.9652 37.5957 42.6907 37.3707 42.3995 37.3373C42.3714 37.1709 42.2985 37.0154 42.1885 36.8876C42.0785 36.7598 41.9358 36.6646 41.7757 36.6122C41.6509 36.5705 41.4679 36.5455 41.4596 36.3872C41.4513 36.2288 41.1768 36.1538 41.1934 36.0038C41.1631 35.7298 41.0363 35.4757 40.8357 35.287C40.7944 35.2799 40.7522 35.2799 40.7109 35.287C40.6527 35.287 40.6028 35.287 40.5446 35.287C40.4287 35.2826 40.3171 35.2415 40.226 35.1696C40.1348 35.0978 40.0687 34.9988 40.0372 34.887C40.0372 34.8036 39.9789 34.7203 39.9623 34.6703C39.7456 34.5449 39.5372 34.4057 39.3384 34.2535C39.165 34.0795 38.9658 33.9333 38.7478 33.8201C38.7437 33.7786 38.7437 33.7367 38.7478 33.6951C38.7355 33.6487 38.7136 33.6055 38.6835 33.5681C38.6534 33.5308 38.6158 33.5002 38.5732 33.4784C38.5105 33.4512 38.4495 33.4206 38.3902 33.3867C38.0158 33.1284 37.7912 32.6616 37.392 32.4366C37.209 32.0199 36.7931 31.7531 36.6184 31.3281C36.5685 31.1947 36.4853 31.0697 36.4354 30.9614C36.3855 30.853 36.3272 30.8613 36.294 30.8447C36.0931 30.7807 35.9105 30.6692 35.7616 30.5196L35.6535 30.4029L35.5287 30.1946C35.4384 30.0443 35.3578 29.8884 35.2875 29.7278L35.1128 29.3194C34.9797 29.0527 35.013 28.9277 35.1128 28.8277L35.196 28.6777C35.09 28.4135 35.0584 28.1252 35.1045 27.8442C35.1355 27.516 35.1883 27.1903 35.2625 26.8691C35.152 26.505 35.1125 26.123 35.1461 25.7439C35.3124 24.9104 35.329 24.1353 35.4788 23.3769C35.4039 23.1268 35.5703 22.8768 35.6867 22.6268C35.7568 22.4751 35.8403 22.3301 35.9363 22.1934C36.1026 21.9433 36.2856 21.71 36.4686 21.4766C36.6516 21.2432 36.6516 21.1432 36.5685 21.0099C36.4853 20.8765 36.5685 20.9348 36.5685 20.8765L37.0676 20.2847C37.4747 20.2131 37.8577 20.0413 38.1822 19.7847C38.4817 19.6847 38.5981 19.4096 38.856 19.0929L38.282 19.2179L38.4817 18.5095C38.6231 18.4345 38.7562 18.3845 38.8643 18.3345C39.0465 18.0366 39.1918 17.7175 39.2968 17.3843C39.4299 16.9176 39.4549 16.9092 40.0039 16.7842C40.0439 16.7705 40.0829 16.7538 40.1204 16.7342C40.2332 16.6059 40.3526 16.4835 40.478 16.3675C40.5285 16.3122 40.5912 16.2694 40.661 16.2425C40.9854 16.1675 41.3348 15.9258 41.6759 15.8757C41.8544 15.8206 42.0272 15.748 42.1916 15.659C42.3912 15.5674 42.5826 15.459 42.7822 15.3757C42.8321 15.3757 42.8571 15.4757 42.9153 15.484C43.0248 15.509 43.1385 15.509 43.248 15.484C43.3023 15.4685 43.3491 15.4337 43.3797 15.3862C43.4103 15.3386 43.4226 15.2816 43.4144 15.2256C43.4144 15.0173 43.6722 14.8923 43.8802 14.7923C44.0882 14.6922 44.3127 14.6672 44.5373 14.5505C44.6236 14.5114 44.7172 14.4912 44.8118 14.4912C44.9065 14.4912 45.0001 14.5114 45.0863 14.5505C45.3026 14.6506 45.3608 14.4755 45.5605 14.3672C45.8757 14.5203 46.226 14.5865 46.5753 14.5589C46.8165 14.5589 47.0661 14.5172 47.3323 14.5589C47.6819 14.5503 48.0254 14.6524 48.3138 14.8506C48.6216 15.0673 48.8961 15.359 49.1456 15.5257L49.653 15.6841C49.7702 15.7223 49.8843 15.7697 49.9941 15.8257C50.2525 15.9534 50.4885 16.1223 50.6928 16.3258C50.9852 16.608 51.3058 16.8594 51.6494 17.0759C51.7076 17.1309 51.7777 17.1715 51.8542 17.1946C51.9307 17.2178 52.0115 17.2228 52.0903 17.2093C52.1785 17.1936 52.2693 17.2024 52.3529 17.2347C52.4365 17.267 52.5096 17.3216 52.5644 17.3926C52.6809 17.5093 52.7973 17.626 52.9055 17.751C52.9771 17.8334 53.036 17.9262 53.0802 18.0261C53.0802 18.1178 53.0802 18.2178 53.2798 18.3178L54.0617 18.3845C54.2697 18.6595 54.4194 19.0012 54.8935 19.0846C55.123 19.328 55.4086 19.5112 55.7254 19.618C55.9333 19.7097 56.1163 19.793 56.1662 20.018C56.1977 20.0787 56.2471 20.1281 56.3076 20.1597C56.4887 20.2343 56.6529 20.3448 56.7901 20.4848C56.8612 20.5443 56.9394 20.5947 57.023 20.6348C57.1324 20.6695 57.2361 20.72 57.3308 20.7848C57.4048 20.8912 57.4663 21.0059 57.5138 21.1265C57.7267 21.2027 57.9261 21.3124 58.1044 21.4516C58.1736 21.6731 58.2685 21.8857 58.3872 22.085C58.5785 22.3017 58.4953 22.4851 58.6617 22.7018C58.9206 22.6993 59.1747 22.7717 59.3937 22.9101C59.7098 23.0935 59.768 23.4019 59.9926 23.6186C60.1091 23.6186 60.2255 23.6186 60.3087 23.6686C60.6557 23.8664 60.9431 24.1544 61.1405 24.5021C61.2078 24.6893 61.3225 24.8559 61.4733 24.9855C61.7469 25.2534 62.0418 25.4987 62.355 25.7189C62.4548 25.9606 62.538 26.1606 62.6212 26.344C62.8707 26.619 63.2118 26.7357 63.3615 27.1191C63.3615 27.1691 63.4696 27.2025 63.5195 27.2441C63.6939 27.3666 63.8353 27.5303 63.9311 27.7209C64.0269 27.9114 64.0741 28.1227 64.0685 28.336C64.0605 28.5442 64.0974 28.7517 64.1767 28.9444C64.3098 29.0861 64.4096 29.2444 64.5177 29.3611C64.6209 29.4356 64.7293 29.5025 64.8421 29.5611C64.8981 29.6078 64.9484 29.661 64.9919 29.7195C65.1645 29.9176 65.2694 30.1659 65.2913 30.4279C65.2946 30.5564 65.3199 30.6832 65.3662 30.803C65.4316 30.9371 65.5126 31.063 65.6074 31.1781L65.3246 31.5031C65.1 31.4114 65.0251 31.6531 64.917 31.7698C64.7284 31.6807 64.5695 31.5389 64.4595 31.3614C64.4595 31.3614 64.4595 31.2697 64.393 31.2197L64.4512 30.7113C64.343 30.5613 64.1684 30.4696 64.1268 30.3363C64.0462 30.1681 63.9364 30.0157 63.8024 29.8862C63.5944 29.6028 63.295 29.4445 63.0953 29.1278C63.0953 29.0777 62.9872 29.0694 62.9373 29.0361L62.8125 29.2778C62.7196 29.255 62.6279 29.2272 62.538 29.1944C62.2716 29.0748 62.027 28.9114 61.8143 28.711C61.6479 28.511 61.4816 28.3193 61.3318 28.1109C61.1554 27.9171 61.0045 27.7014 60.8827 27.4692C60.7912 27.3108 60.7163 27.1441 60.6331 27.0108C60.2422 26.8191 60.2422 26.8191 60.1257 26.4607C59.9356 26.5461 59.7271 26.5825 59.5193 26.5665C59.3115 26.5505 59.1111 26.4826 58.9362 26.369C58.8559 26.1786 58.7864 25.9839 58.7282 25.7856C58.6783 25.5355 58.4038 25.3939 58.3206 25.1772L58.2458 24.6437C58.2444 24.5672 58.2266 24.4919 58.1936 24.4228C58.1606 24.3538 58.1131 24.2927 58.0545 24.2437C57.8881 24.1353 57.7966 24.2437 57.6885 24.2437C57.6151 24.2842 57.5368 24.315 57.4556 24.3354C57.3076 24.1824 57.1328 24.0581 56.9398 23.9686L56.3908 23.7519C56.2865 23.6265 56.1755 23.5068 56.0581 23.3936C55.9213 23.2706 55.7768 23.1564 55.6255 23.0518C55.4841 22.9794 55.3503 22.8929 55.2263 22.7935C55.0849 22.6268 54.8935 22.7018 54.7771 22.5434L54.8187 22.4517L54.9185 22.3767C54.3362 22.035 54.3279 22.035 54.1948 21.5016C54.1948 21.5016 54.1948 21.5016 54.1948 21.4516C53.8119 21.3512 53.4601 21.1564 53.1717 20.8848H52.2234C52.1652 20.8848 52.0903 20.8848 52.0487 20.8848C51.7495 20.7038 51.4146 20.59 51.0671 20.5515L50.984 20.4681C50.984 20.1931 50.6928 19.9514 50.5764 19.6847C50.5414 19.6237 50.4893 19.5745 50.4266 19.543L49.3869 18.9512L49.1706 18.5512C48.8295 18.3928 48.4635 18.3678 48.2722 18.0011C48.2722 17.8927 48.397 17.7844 48.2722 17.6677C48.0995 17.6887 47.9294 17.7279 47.7648 17.7844C47.6782 17.7935 47.5921 17.8074 47.5069 17.826C47.4258 17.6896 47.3249 17.566 47.2075 17.4593C47.0184 17.5135 46.8207 17.5305 46.6252 17.5093C46.3923 17.6677 46.1927 17.5093 45.9847 17.5093C45.8637 17.6112 45.7327 17.7006 45.5938 17.776C45.444 17.8427 45.261 17.826 45.0531 17.8927C44.7293 18.2584 44.3698 18.5906 43.98 18.8845C43.8933 18.9646 43.8127 19.0509 43.7388 19.1429C43.6057 19.2596 43.7388 19.3763 43.639 19.5013C43.456 19.4263 43.4144 19.568 43.3811 19.6847C43.2328 19.6552 43.0802 19.6552 42.9319 19.6847C42.5657 19.8097 42.2097 19.9629 41.8672 20.1431L41.2267 20.5765C41.226 20.7331 41.1931 20.8879 41.1302 21.0313C41.0672 21.1747 40.9755 21.3036 40.8607 21.4099C40.6444 21.5933 40.686 21.86 40.5113 22.06C40.3366 22.26 40.6194 22.26 40.5695 22.4101V22.5351L40.1952 22.6934C40.1952 23.1102 39.8458 23.3519 39.6795 23.6686C39.8209 23.9686 39.8375 24.0103 39.6795 24.2437C39.6142 24.3129 39.5557 24.3883 39.5048 24.4687C39.5048 24.4687 39.5048 24.5771 39.5048 24.6271C39.5048 24.6771 39.5048 24.7438 39.5048 24.7854C39.3397 25.0327 39.2475 25.3215 39.2386 25.6189C39.2425 25.7445 39.2149 25.8691 39.1582 25.9813C39.1015 26.0934 39.0176 26.1895 38.9142 26.2607C38.7511 26.3962 38.6251 26.5712 38.5482 26.7691C38.4983 26.8691 38.6397 26.8691 38.6148 26.9441C38.5273 27.0802 38.4495 27.2222 38.3818 27.3692H38.1489C38.1531 27.4524 38.1531 27.5359 38.1489 27.6192C38.1489 27.7025 38.1489 27.7942 38.1489 27.8692L38.5565 28.0776C38.6647 28.1359 38.673 28.1776 38.8227 28.4026C38.9399 28.6149 39.1243 28.7821 39.3468 28.8777C39.403 28.905 39.456 28.9385 39.5048 28.9777C39.563 29.1278 39.6213 29.2778 39.7044 29.4528L40.2701 29.8695C40.3224 29.907 40.3659 29.9556 40.3975 30.0117C40.4291 30.0679 40.4481 30.1303 40.4531 30.1946C40.3533 30.1946 40.2451 29.9862 40.1453 30.1279C40.1717 30.2305 40.2275 30.323 40.3059 30.3941C40.3843 30.4652 40.4817 30.5118 40.5862 30.528C40.6694 30.528 40.7525 30.528 40.7941 30.628C40.8357 30.728 41.0936 30.778 41.1851 30.903C41.2766 31.028 41.1269 31.1864 41.3099 31.3281C41.7175 31.2697 41.7091 31.2697 42.1417 31.5698C42.2498 31.6448 42.3496 31.7448 42.4661 31.8115C42.7855 32.0031 43.0316 32.2966 43.1648 32.6449C43.248 32.8783 43.4476 33.0867 43.4476 33.3284C43.4607 33.4074 43.4946 33.4815 43.5457 33.5431C43.5969 33.6046 43.6636 33.6513 43.7388 33.6784C43.9765 33.755 44.1931 33.8863 44.371 34.0618C44.554 34.2619 44.7619 34.2202 44.9449 34.3202C44.9449 34.3869 44.9865 34.4536 45.0115 34.5036C45.1156 34.7406 45.2976 34.9347 45.5272 35.0536C45.5272 35.0536 45.6187 35.1037 45.6187 35.1203C45.6187 35.2954 45.835 35.412 45.8932 35.5621C45.9451 35.696 46.0279 35.8157 46.1349 35.9113C46.2419 36.0069 46.3701 36.0757 46.5088 36.1121L46.8082 36.2372C46.8914 36.4789 46.9746 36.6956 47.2824 36.7622C47.3323 36.7622 47.3905 36.8372 47.4404 36.8789C47.6899 37.104 47.9478 37.2957 48.2057 37.1123C48.4219 37.1123 48.6382 37.1123 48.8462 37.1123C48.9055 37.1485 48.9613 37.1903 49.0125 37.2373C49.1741 37.4274 49.3008 37.6447 49.3869 37.8791C49.3957 37.917 49.412 37.9527 49.4349 37.9842C49.4578 38.0157 49.4867 38.0423 49.52 38.0624C49.652 38.1621 49.7771 38.2707 49.8943 38.3875C49.9054 38.388 49.9165 38.388 49.9276 38.3875C49.9765 38.3618 50.0305 38.3473 50.0856 38.345C50.1408 38.3427 50.1958 38.3527 50.2467 38.3742C50.2976 38.3957 50.3431 38.4282 50.38 38.4694C50.4168 38.5106 50.4441 38.5595 50.4599 38.6125C50.7261 38.6959 50.8592 38.9876 51.1586 39.0292C51.2335 39.0292 51.3167 39.1126 51.3916 39.1459V39.0876ZM44.2296 34.4286C44.2407 34.4446 44.2557 34.4576 44.2731 34.4663C44.2905 34.4751 44.3099 34.4793 44.3294 34.4786C44.3294 34.4786 44.3793 34.4369 44.3294 34.4119C44.2795 34.3869 44.2462 34.2369 44.2046 34.1535C44.1048 34.2202 44.1797 34.3285 44.2296 34.4286ZM60.7912 24.2187H60.8411L60.7912 24.177V24.2187ZM42.6657 32.3032H42.7156H42.6657Z" fill="#383738"/>
<path d="M54.9267 40.3464L54.91 40.3047L54.9434 40.3297L54.9267 40.3464Z" fill="#383738"/>
<path d="M51.5082 39.1543C51.5082 39.0793 51.4583 39.0793 51.4001 39.1043L51.5415 39.1627L51.5082 39.1543Z" fill="#383738"/>
<path d="M51.6411 39.2132L51.508 39.1548L51.533 39.1465L51.4831 39.2548L51.4664 39.2298L51.6078 39.2965H51.5829L51.6328 39.1965L51.6411 39.2132Z" fill="#383738"/>
<path d="M52.7976 39.6968H52.856L52.8143 39.7134L52.7976 39.6968Z" fill="#383738"/>
<path d="M38.0409 19.7351L38.0742 19.6685L38.0659 19.7268L38.0409 19.7351Z" fill="#383738"/>
<path d="M76.3379 49.481V49.2977C76.3379 49.206 76.3379 49.1726 76.2214 49.1977C76.0717 48.9893 75.8471 49.131 75.6974 48.9726C75.5477 48.8143 75.6974 48.6726 75.556 48.6726C75.4146 48.6726 75.2981 48.5225 75.1817 48.4392C75.1961 48.3252 75.176 48.2094 75.1241 48.1069C75.0722 48.0044 74.9909 47.9198 74.8905 47.8641C74.8905 47.8641 74.8905 47.7391 74.8905 47.6724C74.8136 47.647 74.7407 47.6105 74.6743 47.5641C74.5245 47.439 74.3415 47.4641 74.2001 47.364C74.0587 47.264 73.9755 47.4557 73.8591 47.364C73.7744 47.2808 73.6759 47.2131 73.5679 47.164C73.534 47.1396 73.4933 47.1265 73.4515 47.1265C73.4097 47.1265 73.369 47.1396 73.335 47.164C73.1271 47.164 72.8692 47.1223 72.628 47.114C72.3704 47.1043 72.1168 47.0478 71.8793 46.9473C71.688 46.9473 71.5716 47.164 71.3386 47.1473C71.1057 47.1307 70.9144 46.839 70.6316 46.914C70.3488 46.989 70.3321 47.189 70.1824 47.2224C70.0283 47.2651 69.8822 47.3326 69.7499 47.4224C69.7082 47.4616 69.6532 47.4835 69.596 47.4835C69.5388 47.4835 69.4837 47.4616 69.4421 47.4224C69.284 47.2557 69.2175 47.2557 69.0262 47.4224L68.8016 47.6141C68.6569 47.5476 68.5024 47.5054 68.3441 47.4891C68.1504 47.4996 67.9646 47.5694 67.8117 47.6891C67.6356 47.8422 67.4125 47.9304 67.1795 47.9391C67.069 47.9678 66.9607 48.004 66.8551 48.0475C66.8551 48.1725 66.7387 48.3058 66.7636 48.4059C66.7886 48.5059 66.6305 48.7726 66.5473 48.9559C66.5174 49.0134 66.4718 49.0611 66.4159 49.0936C66.3599 49.1261 66.2959 49.1419 66.2312 49.1393C66.1897 49.1393 66.1481 49.2643 66.1065 49.331L65.8403 49.3893L65.6822 49.6977L65.075 49.8311C64.9086 49.8311 64.734 49.8311 64.6175 50.0811C64.6175 50.1561 64.4179 50.1895 64.343 50.2478C64.2446 50.2895 64.1499 50.3397 64.0602 50.3978C63.9029 50.4937 63.7601 50.6116 63.636 50.7479C63.636 50.9979 63.636 50.9896 63.5694 51.1396C63.4844 51.307 63.4174 51.483 63.3698 51.6647C63.321 51.6618 63.2721 51.6698 63.2268 51.688C63.1814 51.7062 63.1406 51.7342 63.1072 51.77C63.0739 51.8058 63.0488 51.8486 63.0338 51.8952C63.0188 51.9418 63.0142 51.9912 63.0204 52.0397C63.0037 52.0884 62.9783 52.1336 62.9455 52.1731C62.663 52.2376 62.3851 52.3211 62.1137 52.4231C61.9058 52.1731 61.6229 52.0397 61.4483 51.6564C61.3603 51.4715 61.3147 51.2694 61.3147 51.0646C61.3147 50.8598 61.3603 50.6577 61.4483 50.4728L61.5564 50.1811L61.4649 49.8728C61.5769 49.679 61.7049 49.495 61.8475 49.3227C62.2069 48.9129 62.657 48.5932 63.1618 48.3892C63.3365 48.3309 63.3199 48.2808 63.428 47.9558C63.5104 47.7494 63.5473 47.5277 63.5361 47.3057L64.0685 46.8973C64.1401 46.7269 64.2468 46.5735 64.3815 46.4472C64.5162 46.3208 64.676 46.2243 64.8504 46.1639C65.0344 46.1053 65.2037 46.0082 65.3472 45.8788C65.4906 45.7494 65.6049 45.5909 65.6822 45.4137C65.6407 45.3304 65.5325 45.2554 65.5741 45.1887C65.7405 44.9387 65.7654 44.697 66.0649 44.4803C66.3617 44.355 66.6835 44.3008 67.0048 44.3219C67.2328 44.3558 67.4657 44.327 67.6786 44.2386C67.8166 44.1654 67.9772 44.1476 68.1278 44.1886C68.299 44.2431 68.4801 44.2594 68.6583 44.2364C68.8365 44.2133 69.0075 44.1515 69.1593 44.0552C69.2268 44.018 69.3026 43.9985 69.3797 43.9985C69.4568 43.9985 69.5326 44.018 69.6001 44.0552H69.5336H69.5752C69.7499 44.0552 69.9162 44.1302 70.0826 43.9802C70.1437 43.9426 70.2115 43.9171 70.2822 43.9052C70.6565 43.8468 71.0392 43.8218 71.4385 43.7718C71.4772 43.7688 71.5162 43.7688 71.5549 43.7718C71.8743 43.9566 72.2507 44.016 72.6113 43.9385C72.9485 43.9315 73.2855 43.9566 73.6178 44.0135L73.7842 44.2052H73.7343C73.9451 44.3114 74.1688 44.3899 74.3998 44.4386C74.5111 44.4539 74.617 44.4969 74.7075 44.5636C74.8413 44.7037 75.0068 44.8095 75.19 44.872C75.4063 44.9553 75.4229 45.1804 75.6724 45.2471C75.7142 45.2172 75.7615 45.1961 75.8116 45.185C75.8617 45.1739 75.9135 45.173 75.9639 45.1823C76.0144 45.1916 76.0624 45.211 76.1052 45.2393C76.148 45.2676 76.1847 45.3043 76.2131 45.3471C76.4128 45.5554 76.5625 45.4054 76.679 45.4638L77.3028 46.2972C77.3892 46.3917 77.4838 46.4781 77.5856 46.5556C77.7686 46.6973 77.9516 46.8223 78.143 46.9556C78.2485 47.0499 78.3842 47.1032 78.5256 47.1057C78.7585 47.0557 78.9415 47.2474 79.1079 47.4307C79.2005 47.5433 79.321 47.6295 79.4572 47.6808C79.6423 47.7403 79.8105 47.8431 79.948 47.9808C80.2724 48.3309 80.5386 48.7226 80.888 49.0476C80.9807 49.1656 81.0588 49.2943 81.1209 49.431L81.2706 49.7227C81.6366 49.7227 81.6449 49.7227 81.7863 50.0895L81.8862 50.3645C81.908 50.4098 81.936 50.4519 81.9693 50.4895C82.0608 50.5562 82.1607 50.4895 82.2605 50.6729C82.288 50.7271 82.3023 50.7871 82.3021 50.8479C82.3101 51.1631 82.4415 51.4625 82.6681 51.6814C82.9377 51.9665 83.1222 52.3216 83.2004 52.7065C83.2004 53.0066 83.4999 53.1899 83.6247 53.4483C83.8992 53.4483 84.0822 53.8317 84.34 53.9484C84.3269 54.1094 84.3561 54.2711 84.4247 54.4173C84.4933 54.5635 84.5989 54.6892 84.731 54.7818C84.8391 54.8568 85.0055 54.9319 84.9639 55.0902C84.9223 55.2486 85.1635 55.3986 85.1053 55.5319C85.036 55.8144 85.0776 56.1128 85.2218 56.3654C85.2218 56.3654 85.2966 56.4321 85.3299 56.4404C85.3853 56.4436 85.4409 56.4436 85.4963 56.4404C85.608 56.4756 85.7047 56.5472 85.7711 56.6439C85.8374 56.7406 85.8695 56.8567 85.8623 56.9738C85.8623 57.0655 85.8623 57.1489 85.8623 57.2072C86.0356 57.3887 86.1941 57.5838 86.3364 57.7906C86.4525 58.0045 86.5982 58.2009 86.769 58.374C86.7732 58.4156 86.7732 58.4575 86.769 58.4991C86.7649 58.5474 86.771 58.5961 86.7867 58.6421C86.8025 58.688 86.8276 58.7301 86.8605 58.7658C86.9143 58.8086 86.9644 58.856 87.0102 58.9075C87.293 59.2658 87.3679 59.7409 87.684 60.116C87.7339 60.5577 88.05 60.9494 88.0916 61.3995C88.0916 61.5412 88.1415 61.6912 88.1581 61.8079C88.1844 61.8622 88.218 61.9127 88.2579 61.9579C88.4294 62.0783 88.5692 62.2384 88.6655 62.4246C88.7162 62.4651 88.7635 62.5097 88.8069 62.558C88.8069 62.6163 88.8485 62.7164 88.8735 62.7914C88.9106 62.9648 88.9384 63.1401 88.9567 63.3165L89.0232 63.7582C89.0731 64.0499 89.0232 64.1666 88.9068 64.2416L88.782 64.3583C88.7994 64.6449 88.745 64.9314 88.6239 65.1917C88.4975 65.4892 88.353 65.7787 88.1914 66.0585C88.1892 66.4392 88.1129 66.8157 87.9668 67.167C87.5509 67.9255 87.3097 68.6423 86.9437 69.3257C86.9437 69.5841 86.7107 69.7758 86.5194 69.9758C86.4098 70.1023 86.2871 70.2169 86.1534 70.3175C85.9205 70.5092 85.671 70.6759 85.4297 70.8426C85.1885 71.0093 85.1552 71.1093 85.1968 71.2593C85.2384 71.4093 85.1968 71.3343 85.1968 71.3927L84.5397 71.8011C84.1314 71.7507 83.7171 71.8022 83.3335 71.9511C83.0174 71.9511 82.8178 72.1845 82.5017 72.4095H82.9259L82.5267 73.0263L82.1024 73.0763C81.8405 73.3067 81.606 73.5669 81.4037 73.8514C81.1375 74.2598 81.1126 74.2598 80.5719 74.2181C80.5276 74.2137 80.483 74.2137 80.4388 74.2181C80.2973 74.3108 80.1501 74.3943 79.9979 74.4681C79.9304 74.5018 79.8569 74.5217 79.7817 74.5265C79.4489 74.5265 79.0496 74.6265 78.7086 74.5765C78.5216 74.5739 78.3348 74.5906 78.1513 74.6265C77.9267 74.6265 77.7187 74.7015 77.4941 74.7182C77.4941 74.6598 77.4941 74.6015 77.411 74.5765C77.311 74.5221 77.2001 74.4908 77.0865 74.4848C77.0309 74.4821 76.9763 74.5003 76.9332 74.5357C76.8902 74.5711 76.8618 74.6213 76.8536 74.6765C76.8536 74.8849 76.5043 74.9265 76.2714 74.9515C76.0384 74.9765 75.8222 74.9515 75.5809 74.9515C75.488 74.9692 75.3922 74.9648 75.3012 74.9388C75.2102 74.9127 75.1265 74.8657 75.0569 74.8015C74.8739 74.6348 74.7658 74.8015 74.5412 74.8015C74.2912 74.557 73.9766 74.3892 73.6345 74.3181C73.4016 74.2348 73.152 74.2014 72.9025 74.1098C72.5724 74.0091 72.2817 73.8081 72.0707 73.5347C71.8377 73.2346 71.6714 72.8762 71.4468 72.6262L71.0059 72.3178C70.9054 72.2479 70.8108 72.1699 70.7231 72.0844C70.5183 71.8836 70.3445 71.6532 70.2074 71.401C70.0131 71.0415 69.7817 70.7035 69.517 70.3925C69.477 70.3256 69.4227 70.2685 69.3579 70.2252C69.2932 70.182 69.2196 70.1537 69.1426 70.1425C68.9596 70.1425 68.8432 70.0008 68.7434 69.8174C68.663 69.6744 68.5908 69.5269 68.5271 69.3757C68.4798 69.2792 68.4515 69.1745 68.4439 69.0673C68.4439 68.9673 68.4439 68.8756 68.3274 68.7256L67.6038 68.4339C67.4873 68.1005 67.454 67.7338 67.0631 67.5254C66.9172 67.2198 66.6934 66.9582 66.4142 66.767C66.2396 66.6086 66.0982 66.4753 66.1148 66.2419C66.0981 66.1755 66.0636 66.115 66.015 66.0669C65.8667 65.9392 65.7451 65.7834 65.6573 65.6085C65.6032 65.5332 65.5419 65.4634 65.4743 65.4001C65.3994 65.3168 65.2747 65.2584 65.2331 65.1667C65.1896 65.0429 65.1616 64.9141 65.1499 64.7833C64.9835 64.6083 64.7756 64.5 64.6841 64.2999C64.6923 64.0664 64.6643 63.833 64.6009 63.6082C64.4927 63.3498 64.6009 63.1998 64.526 62.9331C64.2779 62.8612 64.0555 62.7195 63.8855 62.5247C63.6526 62.2496 63.6776 61.9329 63.5361 61.6912C63.428 61.6412 63.3115 61.6245 63.245 61.5495C62.9804 61.2512 62.8046 60.8845 62.7376 60.491C62.7259 60.2907 62.666 60.0963 62.5629 59.9243C62.3775 59.5861 62.1661 59.2628 61.9307 58.9575C61.9307 58.6991 61.8891 58.4824 61.8725 58.2824C61.7061 57.949 61.4233 57.7323 61.3984 57.3239C61.3984 57.2739 61.3152 57.2155 61.2736 57.1572C61.1444 56.9807 61.0615 56.7745 61.0324 56.5575C61.0033 56.3405 61.0291 56.1198 61.1072 55.9153C61.1829 55.7221 61.2086 55.5128 61.1821 55.3069C61.1072 55.1319 61.0573 54.9485 60.9824 54.8068C60.9108 54.7003 60.827 54.6024 60.7329 54.5151C60.6943 54.4524 60.6636 54.3853 60.6414 54.3151C60.5337 54.0775 60.5073 53.8108 60.5665 53.5566C60.5865 53.4296 60.5865 53.3003 60.5665 53.1733C60.5393 53.0277 60.4975 52.8853 60.4418 52.7482L60.7412 52.5565C60.9242 52.7148 61.0656 52.5065 61.207 52.4231C61.3588 52.5688 61.4681 52.7533 61.5231 52.9566C61.5322 53.0061 61.5322 53.057 61.5231 53.1066L61.3152 53.5816C61.3734 53.7483 61.5148 53.89 61.5231 54.0317C61.5491 54.2148 61.6054 54.3922 61.6895 54.5568C61.806 54.8902 62.0389 55.1319 62.1387 55.4903C62.1387 55.5486 62.2219 55.5819 62.2718 55.6236L62.4548 55.4403C62.5401 55.4852 62.6208 55.5382 62.696 55.5986C62.9191 55.7856 63.1028 56.015 63.2367 56.2737C63.3365 56.5154 63.4363 56.7488 63.5195 56.9905C63.6284 57.2304 63.7094 57.4821 63.7607 57.7406C63.7607 57.9156 63.819 58.099 63.8606 58.249C64.1766 58.5574 64.1766 58.5491 64.1766 58.9241C64.3853 58.8983 64.5971 58.926 64.792 59.0047C64.987 59.0835 65.1588 59.2106 65.2913 59.3742C65.3037 59.5796 65.3037 59.7856 65.2913 59.9909C65.2913 60.241 65.4909 60.4577 65.4992 60.6911C65.5076 60.9244 65.441 61.0494 65.4161 61.2245C65.3936 61.2966 65.3871 61.3728 65.3972 61.4476C65.4072 61.5225 65.4336 61.5943 65.4743 61.6579C65.5991 61.8162 65.7238 61.7662 65.8403 61.7412C65.9234 61.7367 66.0067 61.7367 66.0898 61.7412C66.1807 61.9355 66.311 62.1087 66.4725 62.2496C66.6222 62.3746 66.7719 62.4997 66.93 62.6163C66.9892 62.7682 67.0587 62.9157 67.1379 63.0581C67.2308 63.2192 67.3365 63.3725 67.454 63.5165C67.5455 63.6498 67.7036 63.7582 67.7535 63.8915C67.8034 64.0249 68.0446 64.0749 68.1112 64.2583L68.0446 64.3333L67.9448 64.4166C68.4023 64.925 68.4023 64.9167 68.3774 65.4668C68.3737 65.4861 68.3737 65.5058 68.3774 65.5251C68.6828 65.742 68.9335 66.0274 69.1094 66.3586L70.016 66.6503C70.066 66.6503 70.1491 66.6503 70.1741 66.7086C70.4066 66.9688 70.6897 67.1786 71.0059 67.3254C71.0059 67.3837 71.0641 67.4087 71.0558 67.4254C71.0059 67.6921 71.1806 68.0005 71.2139 68.2589C71.2341 68.3257 71.2713 68.386 71.322 68.4339L72.1538 69.3174L72.237 69.7591C72.5115 70.0175 72.8609 70.1508 72.9357 70.5926C72.9357 70.7009 72.7444 70.7676 72.8276 70.9093C72.9989 70.9299 73.172 70.9299 73.3433 70.9093C73.4348 70.9093 73.5097 70.9093 73.6012 70.9093C73.6369 71.0619 73.6958 71.208 73.7759 71.3427C73.9724 71.3554 74.1658 71.3975 74.3498 71.4677C74.616 71.3927 74.7574 71.6094 74.9488 71.6844C75.0975 71.628 75.2505 71.5834 75.4063 71.551C75.5902 71.5607 75.7734 71.5801 75.9553 71.6094C76.4077 71.3698 76.8846 71.1798 77.3777 71.0426C77.4941 71.0009 77.5856 70.9176 77.6938 70.8676C77.8019 70.8176 77.7853 70.6592 77.8934 70.5592C78.0515 70.6842 78.1263 70.5592 78.1929 70.4592C78.3426 70.4592 78.484 70.6009 78.6337 70.5759C79.019 70.5696 79.403 70.5306 79.7817 70.4592L80.522 70.2342C80.5495 70.1486 80.5828 70.0651 80.6218 69.9841C80.7346 69.7765 80.9131 69.6123 81.1292 69.5174C81.3871 69.409 81.4287 69.1423 81.6533 69.0006C81.8778 68.859 81.6533 68.7756 81.7032 68.6506L81.778 68.5422C81.9173 68.5353 82.0561 68.5214 82.1939 68.5006C82.3187 68.1088 82.718 67.9838 82.9675 67.7254C82.9259 67.4004 82.9259 67.3587 83.1589 67.1837C83.2429 67.1378 83.3212 67.0818 83.3918 67.017C83.3918 67.017 83.3918 66.917 83.3918 66.867C83.3918 66.817 83.3918 66.742 83.4666 66.717C83.6943 66.5342 83.867 66.2919 83.9657 66.0169C84.0003 65.8973 84.064 65.7882 84.1511 65.6994C84.2382 65.6107 84.3461 65.545 84.4648 65.5084C84.6612 65.4254 84.8351 65.2969 84.9722 65.1334C85.0471 65.05 84.914 65 84.9722 64.9334C85.0976 64.829 85.217 64.7177 85.3299 64.6C85.3965 64.6 85.4713 64.6583 85.5379 64.7C85.5379 64.6083 85.5379 64.5333 85.6127 64.4583C85.6876 64.3833 85.6959 64.3249 85.6959 64.2249L85.3632 63.9082C85.28 63.8165 85.2883 63.7749 85.2051 63.5081C85.1554 63.2873 85.0358 63.0885 84.8641 62.9414C84.8162 62.897 84.7742 62.8466 84.7393 62.7914C84.7393 62.633 84.7393 62.4747 84.7393 62.283L84.2901 61.7245C84.2505 61.6732 84.2232 61.6135 84.2102 61.5499C84.1973 61.4863 84.199 61.4206 84.2153 61.3578C84.3068 61.3578 84.3484 61.6162 84.4898 61.5162C84.4941 61.4094 84.4673 61.3037 84.4127 61.2119C84.358 61.1201 84.2778 61.0463 84.182 60.9994C84.1155 60.9994 84.0323 60.9578 84.0156 60.8411C83.999 60.7244 83.7744 60.6077 83.7245 60.466C83.6746 60.3243 83.8659 60.2076 83.7245 60.0243C83.3252 59.9493 83.3252 59.9493 82.9759 59.5325C82.8927 59.4325 82.8344 59.2992 82.7429 59.2075C82.5033 58.9131 82.3713 58.5455 82.3686 58.1657C82.3686 57.924 82.2272 57.6656 82.2938 57.4322C82.3067 57.3533 82.2972 57.2724 82.2663 57.1987C82.2354 57.125 82.1844 57.0615 82.1191 57.0155C81.9186 56.8678 81.7537 56.677 81.6366 56.4571C81.5202 56.2154 81.3122 56.1904 81.1625 56.0404C81.167 55.9738 81.167 55.9069 81.1625 55.8403C81.1337 55.5825 81.0195 55.3419 80.8381 55.1569L80.705 55.0569C80.705 54.8818 80.5802 54.7068 80.5719 54.5485C80.5617 54.4062 80.5189 54.2683 80.4468 54.1454C80.3746 54.0225 80.2751 53.918 80.156 53.84L79.9064 53.6317C79.9064 53.3816 79.9064 53.1482 79.607 52.9899C79.5579 52.9455 79.5183 52.8916 79.4905 52.8315C79.3158 52.5482 79.1328 52.2815 78.8334 52.3815L78.2178 52.1731C78.1724 52.1195 78.1333 52.0607 78.1014 51.9981C78.0067 51.7671 77.9505 51.5222 77.935 51.273C77.9376 51.2349 77.9323 51.1968 77.9194 51.1609C77.9065 51.125 77.8863 51.0922 77.8601 51.0646C77.7663 50.9278 77.6802 50.7859 77.6023 50.6395C77.5609 50.6339 77.5189 50.6339 77.4775 50.6395C77.4232 50.6506 77.3671 50.6495 77.3132 50.6363C77.2594 50.623 77.2092 50.5979 77.1662 50.5628C77.1232 50.5277 77.0885 50.4835 77.0647 50.4334C77.0409 50.3832 77.0284 50.3284 77.0283 50.2728C76.8037 50.1061 76.7621 49.7894 76.4876 49.6644C76.4211 49.6644 76.3629 49.5394 76.2963 49.481H76.3379ZM81.7863 56.0737C81.7676 56.0382 81.7386 56.0091 81.7032 55.9903C81.7032 55.9903 81.6449 55.9903 81.6449 56.0487C81.6449 56.107 81.6449 56.2404 81.6449 56.3321C81.8612 56.3404 81.803 56.1904 81.7863 56.0737ZM62.9289 60.8911H62.8707V60.9494L62.9289 60.8911ZM82.6348 58.5907H82.5766C82.5766 58.5907 82.5766 58.5907 82.5766 58.6407C82.5766 58.6908 82.5766 58.6407 82.5766 58.6407L82.6348 58.5907Z" fill="#383738"/>
<path d="M73.3349 47.2227L73.3433 47.2727L73.3182 47.231L73.3349 47.2227Z" fill="#383738"/>
<path d="M76.2464 49.3809C76.2464 49.4559 76.2464 49.4726 76.3296 49.4643L76.2131 49.3643L76.2464 49.3809Z" fill="#383738"/>
<path d="M76.1378 49.281L76.246 49.381H76.221L76.3042 49.2977V49.3227L76.1877 49.2227H76.2127L76.1378 49.306V49.281Z" fill="#383738"/>
<path d="M75.1733 48.481L75.1233 48.4644H75.1733V48.481Z" fill="#383738"/>
<path d="M83.3081 71.9512L83.2581 72.0012L83.2831 71.9512H83.3081Z" fill="#383738"/>
<path d="M69.1507 47.3142L69.0842 47.4226C69.0259 47.4809 69.0426 47.4976 69.0842 47.4726C69.0842 47.5809 69.3254 47.4726 69.342 47.5642C69.3587 47.6559 69.184 47.7309 69.2921 47.7309C69.4003 47.7309 69.3836 47.8143 69.4252 47.8559C69.2921 47.9893 69.2339 48.106 69.3004 48.1977C69.367 48.2893 69.2256 48.2727 69.184 48.3144C69.1424 48.356 69.2505 48.3144 69.2589 48.3894C69.2672 48.4644 69.4086 48.456 69.4169 48.5477C69.4252 48.6394 69.6082 48.5477 69.6165 48.5977C69.6082 48.6586 69.6082 48.7203 69.6165 48.7811C69.6165 48.8228 69.6748 48.8394 69.7579 48.7811C69.8994 48.7811 69.9077 48.9478 69.9992 49.0228C70.0907 49.0978 70.074 49.2395 70.0574 49.3728C70.0408 49.5062 70.307 49.3728 70.3236 49.4812C70.3402 49.5895 70.124 49.7812 70.1905 49.8729C70.257 49.9646 70.4567 49.8729 70.4983 49.9229C70.5576 49.9895 70.6361 50.0361 70.7229 50.0563C70.7894 50.0563 70.7728 50.123 70.6813 50.2063C70.5898 50.2896 70.5315 50.373 70.6813 50.4063H70.8227C70.7559 50.486 70.7025 50.5761 70.6646 50.673C70.6527 50.711 70.6518 50.7515 70.6621 50.7899C70.6725 50.8283 70.6935 50.863 70.7229 50.8897C70.7679 50.9066 70.8044 50.9406 70.8246 50.9842C70.8449 51.0279 70.8472 51.0778 70.831 51.1231C70.8187 51.1695 70.8187 51.2184 70.831 51.2648C70.9271 51.261 71.0222 51.2442 71.1138 51.2148C71.2495 51.174 71.3941 51.174 71.5297 51.2148C71.6296 51.2148 71.6212 51.2815 71.588 51.3565C71.5547 51.4315 71.6628 51.3565 71.7127 51.3565V51.4982L71.8957 51.5482C71.8551 51.6647 71.8079 51.7788 71.7543 51.8899C71.7127 51.9982 71.6212 52.0983 71.7543 52.1483C71.8874 52.1983 71.7543 52.2566 71.7543 52.315C71.7543 52.3733 71.7044 52.44 71.6961 52.49C71.6881 52.5815 71.6881 52.6735 71.6961 52.765C71.8625 52.765 71.8541 52.765 71.8874 52.8484C71.9207 52.9317 71.9789 53.0067 72.0205 53.0817C71.8541 53.2234 71.8292 53.3234 71.8874 53.4068C71.9456 53.4901 71.8874 53.4568 71.8874 53.4901C71.6628 53.6485 71.4549 53.8152 71.2386 53.9735C70.9839 54.0407 70.7256 54.0935 70.465 54.1319C70.2487 54.1319 70.0491 54.1319 69.9992 54.0152C69.9493 53.8985 69.9493 53.9652 69.9326 53.9485L69.6997 53.9985C69.6871 53.9325 69.6871 53.8646 69.6997 53.7985C69.6859 53.5809 69.735 53.3638 69.8411 53.1734C69.891 53.0817 69.8411 53.0984 69.6664 53.0901C69.5108 53.0884 69.356 53.1138 69.2089 53.1651L69.1507 52.9651C68.9344 52.9651 68.8429 52.915 68.8346 52.765C68.8263 52.615 68.6849 52.5567 68.452 52.5983C68.3861 52.6477 68.3132 52.6871 68.2357 52.715C68.0777 52.715 67.8614 52.7984 67.7449 52.715C67.6285 52.6317 67.7449 52.515 67.7948 52.3816C67.8199 52.3463 67.8334 52.3041 67.8334 52.2608C67.8334 52.2175 67.8199 52.1752 67.7948 52.1399C67.7766 52.1176 67.7666 52.0896 67.7666 52.0607C67.7666 52.0319 67.7766 52.0039 67.7948 51.9816C67.9113 51.8149 67.9196 51.6982 67.7948 51.6482C67.6701 51.5982 67.72 51.5732 67.7948 51.4982C67.7948 51.4398 67.8614 51.3481 67.7283 51.3648C67.5952 51.3815 67.6784 51.3648 67.6618 51.3648L67.4621 51.0814C67.4621 51.0814 67.4621 51.0814 67.4621 51.0314C67.5619 50.8731 67.5703 50.7647 67.4621 50.7064C67.354 50.648 67.329 50.5647 67.2625 50.498L67.3706 50.3647C67.3706 50.298 67.3706 50.2063 67.3041 50.1813C67.2375 50.1563 67.3041 50.123 67.3041 50.0896C67.3041 50.0563 67.3041 49.9479 67.3041 49.9063C67.3041 49.8646 67.4122 49.7312 67.3041 49.7062C67.1959 49.6812 67.0212 49.8062 67.0462 49.7062C67.0712 49.6062 66.8798 49.7062 66.8466 49.7062C66.8133 49.7062 66.9131 49.4228 66.9297 49.3062C66.9321 49.2848 66.9296 49.2632 66.9224 49.243C66.9152 49.2228 66.9035 49.2045 66.8882 49.1895L66.7135 49.0395C66.6841 49.0234 66.6512 49.015 66.6178 49.015C66.5844 49.015 66.5515 49.0234 66.5222 49.0395C66.3392 49.0978 66.2892 49.0395 66.2643 48.9561C66.2535 48.9306 66.2346 48.9094 66.2105 48.8958C66.1864 48.8823 66.1585 48.8771 66.1312 48.8811C66.0397 48.8811 65.9482 48.8811 65.9149 48.8061C65.8817 48.7311 65.8068 48.5227 65.682 48.4227C65.5572 48.3227 65.682 48.3227 65.682 48.2727C65.6779 48.2311 65.6779 48.1892 65.682 48.1477C65.4075 48.206 65.4075 48.206 65.4325 48.0726V47.9476C65.4325 47.9476 65.2827 47.9476 65.2661 47.9476C65.262 47.92 65.262 47.8919 65.2661 47.8643C65.3909 47.7059 65.3659 47.6142 65.2661 47.5309C65.2092 47.485 65.1711 47.4198 65.1588 47.3477C65.1466 47.2755 65.1611 47.2014 65.1996 47.1392C65.2661 46.9975 65.1164 46.9725 65.0914 46.8808C64.8835 46.9391 64.8419 46.8141 64.6672 46.8308C64.7836 46.6474 64.8003 46.5224 64.609 46.5057C64.4176 46.4891 64.426 46.5057 64.5008 46.4224C64.5757 46.3391 64.4343 46.3307 64.5008 46.2474C64.5519 46.2067 64.5895 46.1515 64.6088 46.0891C64.6281 46.0266 64.6282 45.9598 64.609 45.8973H64.5424H64.4093C64.2346 45.8973 64.193 45.8973 64.243 45.7556V45.6473C64.1522 45.62 64.0655 45.5807 63.9851 45.5306C63.9601 45.4928 63.927 45.4612 63.8881 45.4381C63.8492 45.415 63.8056 45.401 63.7605 45.3972C63.7605 45.3972 63.7605 45.3556 63.7605 45.3389C63.7605 45.3222 63.7605 45.2639 63.7605 45.2556H63.6607C63.5026 45.1889 63.5442 44.9722 63.328 44.9388C63.328 44.7638 63.1699 44.7055 63.1949 44.5221C63.2037 44.4725 63.2037 44.4217 63.1949 44.3721H63.1366C62.8621 44.3721 62.7706 44.3054 62.7623 44.1304C62.7627 44.1142 62.759 44.0981 62.7518 44.0836C62.7446 44.069 62.7339 44.0565 62.7207 44.047C62.6791 43.997 62.7207 43.9387 62.8039 43.872L62.9037 43.7803C62.8455 43.7053 62.8455 43.7053 62.9037 43.5636C62.962 43.4219 62.9536 43.3469 62.9786 43.2386C62.8705 43.1802 62.6958 43.1969 62.6459 43.0969C62.5959 42.9969 62.2549 42.8219 62.0137 42.7218C61.8473 42.7218 61.8307 42.6635 61.7891 42.5968C61.7675 42.5544 61.7508 42.5097 61.7392 42.4635C61.7392 42.3718 61.7392 42.2718 61.7392 42.1884C61.7392 42.1051 61.656 42.1051 61.5312 42.1884H61.4397L61.3815 41.9551C61.5434 41.8017 61.6513 41.5999 61.6893 41.38C61.7891 41.2216 61.6893 41.1883 61.5811 41.0966L61.473 41.305H61.0903L61.1569 41.1216C61.0013 41.0824 60.8384 41.0824 60.6828 41.1216C60.3999 41.1216 60.4083 41.1216 60.5413 40.8799C60.5413 40.8799 60.5413 40.8799 60.5413 40.8299C60.4916 40.8068 60.4442 40.7789 60.3999 40.7465C60.3941 40.7364 60.391 40.7249 60.391 40.7132C60.391 40.7015 60.3941 40.69 60.3999 40.6799C60.4748 40.5298 60.3999 40.4298 60.4748 40.2798C60.5497 40.1298 60.4748 40.1465 60.4748 40.0881C60.4577 40.0253 60.4354 39.9639 60.4083 39.9047C60.4582 39.8631 60.5081 39.8381 60.5247 39.8047C60.5647 39.7626 60.5934 39.711 60.6079 39.6547C60.6079 39.6047 60.5081 39.6547 60.4332 39.6547C60.3583 39.6547 60.2003 39.6547 60.1587 39.6547C60.1171 39.6547 60.1171 39.538 60.0506 39.4964C59.984 39.4547 60.0506 39.388 60.0922 39.3047C60.1338 39.2213 60.0423 39.238 59.9591 39.2296C60.0038 39.202 60.0407 39.1634 60.0663 39.1175C60.0919 39.0715 60.1054 39.0197 60.1054 38.9671C60.1054 38.9145 60.0919 38.8627 60.0663 38.8168C60.0407 38.7708 60.0038 38.7322 59.9591 38.7046C59.9273 38.6658 59.9099 38.6172 59.9099 38.567C59.9099 38.5169 59.9273 38.4683 59.9591 38.4295C60.0256 38.2795 60.1005 38.1211 60.0672 38.0378C59.9605 38.0233 59.8567 37.9923 59.7594 37.9461C59.7174 37.9194 59.6816 37.8841 59.6544 37.8424C59.6271 37.8007 59.609 37.7537 59.6014 37.7044C59.6014 37.5461 59.4932 37.446 59.4267 37.3294C59.3602 37.2127 59.3352 37.2543 59.2187 37.2877C59.1023 37.321 59.0357 37.2877 59.0274 37.221C59.0233 37.1572 59.0233 37.0931 59.0274 37.0293C59.0377 36.9774 59.0545 36.927 59.0773 36.8793C59.0773 36.8293 59.1772 36.7626 59.0773 36.7209H58.6198C58.6198 36.5709 58.7446 36.3792 58.5117 36.3709C58.5117 36.2209 58.3869 36.1875 58.2705 36.1375C58.154 36.0875 58.1207 36.0708 58.2122 35.9375C58.2204 35.9283 58.2249 35.9164 58.2249 35.9041C58.2249 35.8918 58.2204 35.88 58.2122 35.8708C58.1795 35.8612 58.1498 35.8431 58.1264 35.8181C58.103 35.7932 58.0867 35.7625 58.0791 35.7291C58.0791 35.7291 58.0791 35.7291 58.0126 35.6708C57.9461 35.6124 57.9045 35.6708 57.8961 35.6124C57.9028 35.5506 57.9227 35.4909 57.9544 35.4374C57.8712 35.4374 57.7381 35.4374 57.7298 35.3207C57.7215 35.204 57.8878 35.0623 57.8712 34.979C57.8546 34.8957 58.0126 34.754 58.0126 34.6456C57.8835 34.6921 57.7424 34.6921 57.6133 34.6456C57.4886 34.5873 57.6133 34.4123 57.5468 34.3289C57.4802 34.2456 57.3804 34.3706 57.3555 34.3289C57.3305 34.2872 57.1142 34.1872 57.1725 33.9955C57.2307 33.8038 57.1725 33.8205 57.1725 33.7872C57.1725 33.7538 56.9978 33.5955 56.8314 33.5871V33.3121C56.7399 33.2287 56.5403 33.2537 56.5403 33.1037C56.5403 32.9537 56.482 33.1037 56.4571 33.1037C56.2658 33.0537 56.2325 32.912 56.3739 32.687C56.4327 32.6113 56.4596 32.5156 56.4488 32.4203C56.3941 32.382 56.3316 32.3563 56.2658 32.3453C56.2075 32.3453 56.116 32.3453 56.0412 32.3453C56.0112 32.3534 55.9796 32.3534 55.9497 32.3453C55.8415 32.3453 55.8249 32.2369 55.8332 32.1369C55.8499 32.094 55.8499 32.0464 55.8332 32.0036C55.7831 31.9795 55.7299 31.9627 55.6752 31.9535L55.9414 31.6868C56.0871 31.6161 56.2129 31.5102 56.3074 31.3785C56.4189 31.3472 56.5369 31.3472 56.6484 31.3785L56.532 31.6368C56.6151 31.6368 56.7316 31.6368 56.7482 31.6785C56.7649 31.7202 56.8564 31.7452 56.9229 31.7702C56.9895 31.7952 57.2473 31.7702 57.3305 31.8952C57.4137 32.0202 57.3971 31.8952 57.4386 31.8952L57.5967 31.7285L57.7963 31.6785C57.9627 31.6785 58.154 31.6785 58.2455 31.6785C58.337 31.6785 58.545 31.9202 58.5616 32.1286V32.3369C58.7696 32.3369 58.7696 32.3369 58.7197 32.5453C59.2104 32.3203 59.2354 32.3203 59.5515 32.3619C59.5241 32.4703 59.488 32.5762 59.4433 32.6787C59.3768 32.812 59.5016 32.8537 59.4433 32.9787L59.2437 33.2871C59.2021 33.3704 59.1272 33.4621 59.1855 33.4954C59.2437 33.5288 59.3518 33.4954 59.4517 33.4288C59.5515 33.3621 59.5931 33.3621 59.6596 33.3288C59.6712 33.3688 59.6937 33.4048 59.7246 33.4327C59.7554 33.4607 59.7934 33.4795 59.8343 33.4871L60.0922 33.5455C60.0842 33.6063 60.0842 33.668 60.0922 33.7288C60.1205 33.7886 60.16 33.8423 60.2086 33.8872C60.2086 33.8872 60.3334 33.9455 60.3334 33.9955C60.3334 34.0455 60.4998 33.9955 60.4914 34.1039L60.4166 34.1622L60.3168 34.2372C60.5081 34.3872 60.5081 34.3872 60.3168 34.704C60.5247 34.779 60.5247 34.779 60.5996 34.979L61.2068 34.8957C61.2068 34.8957 61.3066 34.8957 61.3149 34.8957C61.3233 34.8957 61.6061 34.9957 61.7475 35.0207C61.6144 35.1874 61.6394 35.3124 61.5645 35.4624C61.5557 35.4729 61.5509 35.4862 61.5509 35.4999C61.5509 35.5136 61.5557 35.5269 61.5645 35.5374L61.8806 35.8125L61.7891 36.0375C61.9139 36.1042 62.1384 36.0875 62.0553 36.2959C61.997 36.3709 61.8473 36.4209 61.8556 36.5209C61.9887 36.5209 62.1384 36.5209 62.2632 36.5209C62.3287 36.5341 62.3928 36.5537 62.4545 36.5792L62.3131 36.921C62.4213 36.971 62.5044 37.0293 62.5211 37.1293C62.6874 37.1293 62.5876 37.3294 62.571 37.446C62.5544 37.5627 62.7623 37.446 62.8039 37.5211C62.8455 37.5961 62.8039 37.6711 62.8538 37.7544C63.0912 37.7686 63.3169 37.8625 63.4943 38.0211C63.5426 38.0468 63.5927 38.0691 63.644 38.0878C63.7023 38.1295 63.827 38.0878 63.9102 38.0878C63.8021 38.2128 63.9102 38.2045 63.9768 38.1962C63.9269 38.2878 63.8354 38.3962 63.8437 38.4545C63.852 38.5129 63.7439 38.8379 63.7855 38.9963C63.7941 39.1017 63.7941 39.2076 63.7855 39.313C63.8492 39.309 63.9131 39.309 63.9768 39.313C64.1099 39.313 64.2263 39.313 64.243 39.4463C64.2596 39.5797 64.4592 39.513 64.5175 39.6047C64.5757 39.6964 64.7088 39.5214 64.7836 39.5464H64.8502L64.7421 39.7797C65.0166 39.7797 64.9666 39.9798 65.0581 40.0881C65.3326 40.0048 65.3576 40.0131 65.3909 40.0881C65.3868 40.1325 65.3868 40.1771 65.3909 40.2215C65.3909 40.2215 65.4574 40.2215 65.4907 40.2215C65.4907 40.2215 65.5572 40.2215 65.5656 40.2215C65.58 40.2878 65.6091 40.3499 65.6509 40.4033C65.6927 40.4567 65.746 40.5 65.8068 40.5298C65.9232 40.5965 65.9732 40.7132 65.8567 40.9049C65.7874 41.0309 65.7449 41.17 65.7319 41.3133C65.7319 41.3883 65.8484 41.3133 65.8484 41.3633L65.7236 41.705L65.5156 41.7884C65.5237 41.8352 65.5237 41.8832 65.5156 41.9301C65.5196 41.9855 65.5196 42.0413 65.5156 42.0967C65.8401 42.0967 65.9482 42.0967 65.9898 42.2718C66.0314 42.4468 66.0979 42.4135 66.231 42.4218H66.3142V42.6468L66.5887 42.7635C66.6552 42.7635 66.6386 42.8469 66.5887 42.9135C66.5388 42.9802 66.5138 42.8385 66.3724 42.9135C66.3724 43.0219 66.3724 43.0802 66.5554 43.0469C66.7384 43.0135 66.6802 43.0469 66.6719 43.0469C66.6636 43.0469 66.8382 43.0469 66.8466 43.1302C66.8549 43.2136 66.6802 43.3053 66.7634 43.3469C67.0878 43.2469 67.0878 43.2469 67.2874 43.3469C67.3373 43.3469 67.3623 43.4136 67.4205 43.4386C67.4788 43.4636 67.6035 43.6553 67.5287 43.8303C67.4538 44.0054 67.5287 44.047 67.4039 44.1887C67.2791 44.3304 67.4039 44.3304 67.4455 44.3471C67.4871 44.3638 67.6701 44.4138 67.695 44.5054C67.72 44.5971 67.8947 44.5471 67.9778 44.5805C67.956 44.6139 67.9392 44.6504 67.9279 44.6888C67.878 44.8388 67.878 44.8722 67.9862 44.9638C68.0943 45.0555 67.9862 44.9638 67.9862 44.9638C67.9862 44.9638 67.9862 45.1222 67.9446 45.1972C67.903 45.2722 67.9446 45.4389 68.0444 45.4806L68.1775 45.5306C68.1026 45.6639 68.0361 45.789 68.1775 45.8056C68.1775 45.8056 68.1775 45.8056 68.1775 45.8723C68.1775 45.939 68.2607 46.089 68.5435 45.9723H68.9428C68.9428 45.9723 68.9428 46.014 68.9428 46.0473C68.9159 46.1792 68.8621 46.3041 68.7847 46.4141C68.7745 46.4318 68.7691 46.4519 68.7691 46.4724C68.7691 46.4929 68.7745 46.513 68.7847 46.5307C68.7888 46.5946 68.7888 46.6586 68.7847 46.7224C68.8123 46.7267 68.8403 46.7267 68.8679 46.7224C69.0592 46.6724 69.1507 46.7224 69.0426 46.8641C69.1341 46.9225 69.0426 47.1058 69.1674 47.1392C69.2921 47.1725 69.2089 47.1975 69.2173 47.2225L69.1507 47.3142ZM67.2874 44.8138C67.2874 44.8138 67.2874 44.8138 67.329 44.8138C67.3515 44.8148 67.374 44.812 67.3956 44.8055C67.416 44.7625 67.4327 44.7179 67.4455 44.6721C67.2958 44.7221 67.3041 44.7805 67.2874 44.8305V44.8138ZM57.0394 33.9789H56.9895H57.0394ZM67.2292 43.7887H67.2791H67.2292Z" fill="#383738"/>
<path d="M69.7747 48.798L69.8081 48.7646L69.7914 48.7897L69.7747 48.798Z" fill="#383738"/>
<path d="M69.1672 47.3642C69.2173 47.3142 69.1672 47.3142 69.1672 47.3225V47.3725V47.3642Z" fill="#383738"/>
<path d="M69.2012 47.4143L69.1679 47.3643H69.1845L69.0847 47.4226L69.093 47.4059L69.1263 47.4559H69.1097L69.2095 47.3976L69.2012 47.4143Z" fill="#383738"/>
<path d="M69.4501 47.8311L69.4751 47.8394H69.4417L69.4501 47.8311Z" fill="#383738"/>
<path d="M61.4814 41.2549L61.4564 41.2466H61.4897L61.4814 41.2549Z" fill="#383738"/>
<path d="M21.404 20.6769L21.5538 20.7852C21.6037 20.8602 21.6536 20.8519 21.7035 20.7852C21.953 20.8352 22.0279 20.5769 22.2442 20.5935C22.4604 20.6102 22.4272 20.8269 22.5436 20.7186C22.6601 20.6102 22.8431 20.6519 22.9845 20.6269C23.0524 20.7198 23.1466 20.7901 23.2549 20.8287C23.3631 20.8673 23.4805 20.8725 23.5917 20.8436C23.5917 20.8436 23.6832 20.9353 23.7248 20.9853C23.8017 20.9501 23.8828 20.9249 23.966 20.9102C24.1574 20.9102 24.2738 20.7602 24.4402 20.7436C24.6065 20.7269 24.5483 20.5185 24.698 20.5102C24.8164 20.5118 24.9343 20.4949 25.0474 20.4602C25.0886 20.4496 25.1254 20.4261 25.1523 20.3931C25.1792 20.3601 25.1949 20.3194 25.1971 20.2768C25.3385 20.1185 25.5715 19.9851 25.7461 19.8267C25.9418 19.658 26.1676 19.528 26.4116 19.4434C26.5364 19.2933 26.4865 19.0683 26.6695 18.9183C26.8525 18.7683 27.1935 18.8599 27.3516 18.6099C27.3599 18.4276 27.3964 18.2476 27.4597 18.0765C27.548 17.9421 27.6101 17.7922 27.6427 17.6348C27.6528 17.5785 27.6848 17.5285 27.7315 17.4958C27.7782 17.463 27.836 17.45 27.8923 17.4597C28.1168 17.4597 28.1751 17.4597 28.2167 17.193V16.9013C28.3663 16.8487 28.5066 16.7728 28.6326 16.6763C28.7654 16.5362 28.8525 16.3588 28.8821 16.1679C28.9109 15.9347 29.0162 15.7177 29.1816 15.5511C29.2428 15.4558 29.2957 15.3554 29.3396 15.2511C29.2814 15.1427 29.2481 14.9844 29.1649 14.926C29.0818 14.8677 29.0152 14.5676 28.9487 14.3759C28.9306 14.3134 28.9312 14.2469 28.9504 14.1847C28.9696 14.1225 29.0066 14.0673 29.0568 14.0259C29.0568 14.0259 29.0568 13.8842 29.0568 13.8008L29.1317 13.5841L29.0402 13.2508L29.3979 12.7423C29.4894 12.6007 29.6224 12.484 29.5559 12.2423C29.5559 12.1673 29.6224 12.0339 29.6474 11.9339C29.6884 11.8357 29.7245 11.7356 29.7555 11.6338C29.798 11.4535 29.8203 11.269 29.8221 11.0838C29.6308 10.9171 29.6391 10.9171 29.6058 10.7504C29.5546 10.5701 29.482 10.3966 29.3895 10.2336C29.4278 10.2024 29.4586 10.163 29.4798 10.1183C29.501 10.0736 29.512 10.0247 29.512 9.97526C29.512 9.92579 29.501 9.87694 29.4798 9.83225C29.4586 9.78756 29.4278 9.74815 29.3895 9.71689C29.3801 9.66733 29.3801 9.61643 29.3895 9.56687C29.5556 9.32703 29.7057 9.07644 29.8387 8.81675C30.1774 8.79516 30.5174 8.82894 30.8452 8.91677C31.0369 8.98523 31.2109 9.09553 31.3548 9.23968C31.4986 9.38382 31.6087 9.55822 31.677 9.75023L31.8018 10.0253L32.0846 10.2003C32.1314 10.42 32.162 10.6429 32.1761 10.8671C32.1909 11.4227 32.074 11.974 31.8351 12.4756C31.7436 12.6423 31.8351 12.659 31.9349 12.9757C32.0131 13.1828 32.1351 13.3705 32.2926 13.5258L32.1512 14.1842C32.2121 14.3592 32.2369 14.5447 32.224 14.7295C32.2111 14.9143 32.1609 15.0946 32.0763 15.2594C31.9787 15.4267 31.9191 15.6136 31.9018 15.8066C31.8846 15.9997 31.9101 16.1942 31.9765 16.3762C32.0597 16.3762 32.1845 16.3762 32.2011 16.4679C32.3006 16.7339 32.3431 17.0179 32.3259 17.3014C32.1429 17.5847 32.0015 17.9181 31.7519 18.0598C31.5551 18.1858 31.4013 18.369 31.311 18.5849C31.2279 18.7266 31.1613 18.8599 31.0199 18.9183C30.8527 18.9969 30.7057 19.1129 30.5904 19.2574C30.475 19.4019 30.3943 19.571 30.3544 19.7517C30.33 19.8255 30.2886 19.8926 30.2338 19.9475C30.1789 20.0025 30.112 20.0439 30.0384 20.0685V20.0018V20.0518C29.9053 20.1601 29.7306 20.2268 29.7223 20.4518C29.7007 20.5212 29.6669 20.5861 29.6224 20.6435C29.3895 20.9436 29.1317 21.2186 28.8655 21.527C28.8331 21.5548 28.7966 21.5773 28.7573 21.5937C28.3983 21.6748 28.0832 21.8892 27.8756 22.1938C27.6333 22.4276 27.3686 22.637 27.0854 22.8189H26.8358C26.8576 22.7988 26.8771 22.7764 26.8941 22.7522C26.8941 22.7522 26.8941 22.7522 26.8941 22.7939C26.6699 22.862 26.4548 22.9572 26.2536 23.0772C26.1604 23.145 26.0517 23.188 25.9375 23.2023C25.7464 23.1908 25.5554 23.2251 25.3801 23.3023C25.1639 23.3856 24.9975 23.2356 24.7646 23.3606C24.7548 23.4105 24.735 23.4578 24.7064 23.4998C24.6778 23.5418 24.641 23.5775 24.5983 23.6047C24.5555 23.632 24.5076 23.6503 24.4575 23.6585C24.4075 23.6667 24.3563 23.6646 24.3071 23.6523C24.016 23.6523 24.0076 23.8524 23.8829 23.8857L22.868 23.7023C22.7408 23.6899 22.6126 23.6899 22.4854 23.7023L21.8033 23.794C21.6617 23.795 21.5254 23.8484 21.4207 23.944C21.2876 24.1357 21.0214 24.1274 20.7718 24.1024C20.6278 24.0844 20.4815 24.1045 20.3476 24.1607C20.171 24.244 19.9771 24.284 19.782 24.2774C19.3078 24.2358 18.8503 24.1357 18.3762 24.1357C18.227 24.1139 18.0815 24.0718 17.9436 24.0107L17.6275 23.9024C17.3281 24.1191 17.3281 24.1274 17.0037 23.9857L16.7458 23.8524H16.6044C16.488 23.8524 16.4464 23.969 16.255 23.919C16.2041 23.8914 16.1567 23.8578 16.1136 23.819C16.0052 23.7082 15.8758 23.6201 15.7329 23.56C15.5901 23.4999 15.4367 23.4689 15.2818 23.469C14.8923 23.4402 14.5182 23.3047 14.2004 23.0772C13.9675 22.8855 13.6514 22.9272 13.3686 22.8272C13.144 22.9856 12.778 22.8272 12.5368 22.9522C12.4374 22.8018 12.2962 22.6837 12.1307 22.6126C11.9651 22.5416 11.7825 22.5205 11.6051 22.5522C11.4804 22.5522 11.3057 22.6272 11.2308 22.4855C11.156 22.3438 10.8731 22.3938 10.8232 22.2521C10.7733 22.1104 10.4572 21.8937 10.1994 21.7604C10.1551 21.7553 10.1105 21.7553 10.0663 21.7604C10.0164 21.7604 9.98309 21.8271 9.92487 21.8521C9.81835 21.9 9.69921 21.9121 9.58525 21.8866C9.47129 21.861 9.36865 21.7992 9.29268 21.7104L9.12631 21.552C8.87747 21.5318 8.63019 21.4956 8.38599 21.4437C8.15563 21.3632 7.91443 21.3183 7.67062 21.3103C7.67062 21.3103 7.61239 21.2436 7.58744 21.2186C7.55909 21.1791 7.52156 21.147 7.47808 21.1252C7.43461 21.1034 7.38649 21.0926 7.33789 21.0936C7.26863 21.0976 7.1992 21.0976 7.12994 21.0936C6.68075 21.0186 6.29811 20.6935 5.82398 20.6685C5.48293 20.3768 4.99215 20.3102 4.6511 20.0101C4.54297 19.9101 4.41819 19.8267 4.32669 19.7517C4.23519 19.6767 4.18528 19.7017 4.15201 19.7101C3.94181 19.7426 3.72677 19.7196 3.52814 19.6434L3.37841 19.585L3.17046 19.46C3.02905 19.36 2.89596 19.2517 2.75455 19.135L2.42182 18.8516C2.18891 18.6682 2.16395 18.5349 2.18059 18.4182V18.2432C1.97174 18.0519 1.81925 17.8068 1.73972 17.5347C1.62154 17.2285 1.52699 16.9137 1.45691 16.5929C1.20019 16.3114 0.999704 15.9832 0.866304 15.6261C0.658348 14.7927 0.342262 14.1009 0.150944 13.3508C-0.0237427 13.1507 0.0178452 12.859 0.00952911 12.584C-0.00315857 12.4175 -0.00315857 12.2504 0.00952911 12.0839C0.00952911 11.7839 0.117664 11.4922 0.184208 11.2004C0.213295 11.1219 0.218548 11.0364 0.199306 10.9549C0.180065 10.8733 0.137196 10.7993 0.0760765 10.742C0.043602 10.7085 0.0181503 10.6689 0.00121307 10.6254L0.200848 9.87525C0.533283 9.6358 0.801815 9.31809 0.982765 8.95011C1.20736 8.73341 1.19904 8.42503 1.29054 8.02497L0.991079 8.33335L0.866304 7.60824C0.966124 7.47488 1.05762 7.37487 1.13249 7.28319C1.17898 6.93748 1.17898 6.58708 1.13249 6.24136C1.05762 5.75796 1.06595 5.74129 1.51513 5.4079C1.54528 5.37666 1.57308 5.34323 1.59831 5.30789C1.64096 5.14363 1.69374 4.98219 1.75636 4.82448C1.78117 4.75303 1.82087 4.68769 1.87282 4.63279C2.139 4.42442 2.34695 4.0577 2.62977 3.86601C2.76453 3.73643 2.88964 3.59715 3.00409 3.44928C3.1455 3.28258 3.27028 3.09922 3.41169 2.93253C3.47824 2.93253 3.51982 2.99087 3.57805 2.93253C3.6882 2.90666 3.79076 2.85528 3.87751 2.78251C3.91271 2.74048 3.93201 2.68736 3.93201 2.63249C3.93201 2.57761 3.91271 2.52449 3.87751 2.48246C3.75273 2.30744 3.96069 2.06573 4.11042 1.88237C4.26015 1.69901 4.44315 1.58233 4.59288 1.39063C4.65057 1.31457 4.72468 1.25257 4.80967 1.20927C4.89466 1.16597 4.98832 1.14249 5.08365 1.14059C5.32488 1.14059 5.29993 0.948898 5.43302 0.765537C5.78424 0.773135 6.13039 0.680645 6.4312 0.49883C6.6558 0.407149 6.86375 0.257126 7.10498 0.157111C7.44171 -0.00455243 7.82434 -0.0428899 8.18635 0.0487615C8.56067 0.107104 8.92668 0.257126 9.25941 0.28213L9.79177 0.232123C9.9135 0.220505 10.0361 0.220505 10.1578 0.232123C10.4406 0.237285 10.721 0.285049 10.9896 0.373811C11.3757 0.504166 11.7744 0.593558 12.1791 0.640518C12.2543 0.662703 12.3335 0.66823 12.411 0.656717C12.4886 0.645203 12.5627 0.616924 12.6283 0.573841C12.7042 0.525678 12.7922 0.500108 12.882 0.500108C12.9718 0.500108 13.0598 0.525678 13.1357 0.573841C13.2941 0.623467 13.4496 0.6819 13.6015 0.748867C13.7017 0.792291 13.7943 0.851368 13.876 0.923894C13.9509 0.99057 13.9675 1.08225 14.1838 1.09059L14.9241 0.757202C15.2319 0.915559 15.5147 1.1656 15.9389 1.04891C16.2531 1.1736 16.5944 1.21383 16.9288 1.1656C17.0314 1.14329 17.1381 1.14767 17.2385 1.1783C17.339 1.20894 17.4299 1.26482 17.5028 1.34062C17.5588 1.37977 17.6258 1.40019 17.6941 1.39897C17.889 1.38922 18.0839 1.41752 18.2681 1.48231C18.3588 1.49907 18.4518 1.49907 18.5426 1.48231C18.6559 1.46958 18.7703 1.46958 18.8836 1.48231C18.9804 1.5504 19.0696 1.62863 19.1498 1.71568C19.3755 1.67729 19.6061 1.67729 19.8319 1.71568C19.9855 1.88636 20.1618 2.035 20.3559 2.15741C20.6138 2.2741 20.6221 2.47413 20.8717 2.59915C21.1195 2.50881 21.3879 2.49145 21.6453 2.54914C22.0029 2.54914 22.1943 2.84085 22.4771 2.93253C22.5935 2.93253 22.685 2.82418 22.7849 2.84085C23.1828 2.87895 23.5627 3.026 23.8829 3.26591C24.0235 3.40605 24.1985 3.50665 24.3903 3.55763C24.753 3.68413 25.1259 3.77895 25.5049 3.841L26.0123 4.29107C26.3617 4.42442 26.7194 4.39108 27.0105 4.67446C27.0105 4.67446 27.1436 4.67446 27.2185 4.67446C27.4327 4.7116 27.6339 4.8031 27.8028 4.94025C27.9717 5.0774 28.1027 5.25562 28.1834 5.45791C28.2607 5.65342 28.3833 5.82769 28.5411 5.96632C28.7158 6.033 28.8821 6.13301 29.0318 6.19136C29.1563 6.20362 29.2817 6.20362 29.4062 6.19136C29.4775 6.21023 29.5471 6.23533 29.6141 6.26637C29.8511 6.37232 30.049 6.55015 30.1798 6.77478C30.243 6.89024 30.3214 6.99675 30.4127 7.09149C30.532 7.1798 30.6602 7.25523 30.7953 7.31653L30.6789 7.74159C30.4376 7.74159 30.4709 7.99996 30.4293 8.15832C30.2183 8.15032 30.0126 8.0902 29.8304 7.98329L29.7139 7.88328L29.5476 7.39154C29.3895 7.31653 29.1899 7.29986 29.0901 7.20818C28.9478 7.08717 28.7841 6.99389 28.6076 6.93314C28.2998 6.76644 27.9588 6.74977 27.6427 6.55808C27.6427 6.55808 27.5262 6.55808 27.4597 6.55808V6.82479C27.3599 6.82479 27.2767 6.82479 27.1769 6.82479C26.8942 6.83617 26.612 6.79375 26.3451 6.69977C26.1121 6.59142 25.8709 6.4914 25.6463 6.36638C25.4122 6.30024 25.1862 6.20798 24.9725 6.09134L24.5566 5.7913C24.1158 5.7913 24.1158 5.7913 23.8579 5.51625C23.7218 5.67411 23.5487 5.7956 23.3541 5.8698C23.1596 5.94399 22.9497 5.96857 22.7433 5.94132C22.5889 5.80745 22.4443 5.66261 22.3107 5.50792C22.1527 5.29956 21.8449 5.29122 21.6785 5.13286L21.3791 4.69113C21.2959 4.57445 21.2293 4.44109 21.038 4.40775C20.8467 4.37442 20.7885 4.49943 20.7219 4.59945C20.6554 4.69946 20.6055 4.71613 20.5472 4.78281C20.3488 4.70467 20.1365 4.66781 19.9234 4.67446H19.3411C19.1831 4.61612 19.0416 4.54111 18.8836 4.4911C18.7256 4.44109 18.5259 4.40775 18.3429 4.37442C18.1832 4.36624 18.0246 4.34393 17.8688 4.30774C17.6775 4.21606 17.536 4.36608 17.3614 4.30774V4.09104C16.6876 4.0327 16.6876 4.04103 16.3382 3.61597H16.28C15.9011 3.66762 15.5154 3.62468 15.157 3.49095L14.3252 3.89934C14.267 3.89934 14.2088 3.98269 14.1588 3.97435C13.8106 3.93806 13.4587 3.97787 13.1274 4.09104C13.0608 4.09104 13.0276 4.09104 13.0192 4.09104C12.8778 3.86601 12.5368 3.74932 12.3205 3.56596C12.2608 3.52801 12.1916 3.50778 12.1209 3.50762L10.8981 3.3826L10.5321 3.11589C10.1578 3.11589 9.81672 3.26591 9.48399 3.01588C9.42577 2.91586 9.484 2.7575 9.35091 2.7075C9.20447 2.80183 9.06792 2.91073 8.94331 3.03255C8.87677 3.09922 8.79358 3.11589 8.72704 3.18257C8.61074 3.08119 8.47868 2.99954 8.33608 2.94087C8.18488 3.06653 8.01324 3.1652 7.82867 3.23258C7.68726 3.48261 7.43771 3.41594 7.24639 3.49095C7.17523 3.63235 7.09464 3.7688 7.00516 3.89934C6.89703 4.02436 6.72235 4.09104 6.5643 4.23273C6.43274 4.70231 6.25438 5.15744 6.03193 5.59127C5.97371 5.69962 5.96538 5.82464 5.91547 5.94132C5.86556 6.058 5.99866 6.15802 5.98202 6.29971C5.78238 6.29971 5.80734 6.45806 5.82398 6.58308C5.67884 6.62005 5.54473 6.69152 5.43302 6.79145C5.15842 7.0481 4.90525 7.32685 4.67606 7.62491C4.54296 7.84994 4.40988 8.06664 4.27678 8.30001C4.32144 8.37833 4.35503 8.46248 4.3766 8.55005C4.43939 8.77678 4.42175 9.01832 4.32669 9.23348C4.20192 9.50019 4.32669 9.71689 4.32669 9.97526C4.32669 10.2336 4.5097 10.1086 4.53465 10.267V10.4003C4.45147 10.492 4.35165 10.5837 4.26015 10.7004C4.43483 11.0838 4.26015 11.4505 4.26015 11.8005C4.51801 12.0172 4.54296 12.0422 4.49306 12.3256C4.46001 12.4172 4.43768 12.5123 4.42651 12.609C4.42651 12.6507 4.48474 12.7007 4.5097 12.7423C4.5097 12.8007 4.56792 12.859 4.5596 12.909C4.51793 13.1915 4.55536 13.4801 4.66774 13.7425C4.72672 13.8527 4.75758 13.9758 4.75758 14.1009C4.75758 14.2259 4.72672 14.3491 4.66774 14.4593C4.5789 14.6521 4.5389 14.864 4.55128 15.076C4.55128 15.1844 4.68438 15.126 4.6927 15.2094C4.68386 15.3704 4.68386 15.5318 4.6927 15.6928L4.47642 15.7678C4.47642 15.8595 4.5596 15.9178 4.58456 15.9928C4.60951 16.0678 4.58456 16.1762 4.6511 16.2345H5.11692C5.23338 16.2345 5.25834 16.2762 5.49125 16.4096C5.68763 16.549 5.92455 16.6193 6.16502 16.6096H6.35634C6.4728 16.7179 6.58925 16.8346 6.73898 16.9513L7.4294 17.0847C7.49475 17.0919 7.55721 17.1156 7.611 17.1535C7.6648 17.1914 7.70819 17.2422 7.73717 17.3014C7.64567 17.343 7.46267 17.2014 7.4294 17.3764C7.50034 17.4544 7.59192 17.5107 7.6935 17.5388C7.79509 17.5668 7.90252 17.5654 8.00335 17.5347C8.06989 17.5347 8.14476 17.4681 8.22795 17.5347C8.31113 17.6014 8.56899 17.5347 8.70209 17.6181C8.83518 17.7014 8.76863 17.9015 8.99322 17.9431C9.33427 17.7181 9.33427 17.7264 9.87495 17.8014C10.008 17.8014 10.1411 17.8681 10.2659 17.8765C10.6459 17.9144 11.0013 18.0821 11.2724 18.3515C11.4388 18.5182 11.7133 18.6182 11.8214 18.8433C11.8688 18.9075 11.9321 18.9582 12.0051 18.9903C12.078 19.0225 12.1581 19.035 12.2373 19.0266C12.4838 18.9936 12.7346 19.0193 12.9693 19.1016C13.2189 19.2017 13.3852 19.1016 13.5932 19.1016L13.7429 19.2433C13.9388 19.4103 14.1847 19.5071 14.4417 19.5184C14.4417 19.5184 14.5415 19.5184 14.5498 19.5184C14.6413 19.6684 14.8742 19.6851 14.9907 19.7934C15.0998 19.8976 15.2324 19.9739 15.3771 20.016C15.5219 20.058 15.6747 20.0646 15.8225 20.0351H16.1469C16.2175 20.138 16.3164 20.218 16.4316 20.2653C16.5469 20.3127 16.6734 20.3254 16.7957 20.3018C16.864 20.3052 16.9314 20.3193 16.9954 20.3435C17.3115 20.4268 17.6276 20.5019 17.8272 20.2185C18.0185 20.1435 18.2181 20.0434 18.4095 19.9601C18.4799 19.9675 18.5495 19.9814 18.6174 20.0018C18.8425 20.1042 19.048 20.2452 19.2246 20.4185C19.2809 20.4755 19.3537 20.5134 19.4326 20.5269C19.5937 20.5595 19.7522 20.6041 19.9067 20.6602C19.9067 20.6602 19.9982 20.6185 20.0149 20.5935C20.0508 20.5513 20.0954 20.5174 20.1457 20.4942C20.196 20.471 20.2507 20.4589 20.306 20.4589C20.3614 20.4589 20.4161 20.471 20.4663 20.4942C20.5166 20.5174 20.5612 20.5513 20.5972 20.5935C20.8717 20.5935 21.1212 20.7602 21.429 20.6602C21.4955 20.6602 21.6037 20.6602 21.6868 20.6602L21.404 20.6769ZM12.9361 19.5684C12.9529 19.5765 12.9714 19.5807 12.9901 19.5807C13.0089 19.5807 13.0273 19.5765 13.0442 19.5684C13.0442 19.5684 13.0442 19.51 13.0442 19.4934C12.9748 19.4258 12.8997 19.3645 12.8196 19.31C12.6948 19.435 12.8446 19.5017 12.9361 19.5684ZM23.467 3.18257V3.13256H23.4004L23.467 3.18257ZM10.607 18.3099V18.2682H10.557L10.607 18.3099Z" fill="#383738"/>
<path d="M25.1392 20.2853L25.0975 20.252L25.1392 20.2686V20.2853Z" fill="#383738"/>
<path d="M21.5381 20.6851C21.4965 20.6184 21.4632 20.6351 21.4216 20.6851H21.5547H21.5381Z" fill="#383738"/>
<path d="M21.687 20.6856H21.5373L21.5539 20.6773V20.7856L21.5373 20.7773L21.687 20.769L21.6704 20.7856V20.6689L21.687 20.6856Z" fill="#383738"/>
<path d="M22.9343 20.6187L22.9844 20.6021L22.951 20.6271L22.9343 20.6187Z" fill="#383738"/>
<path d="M1.02482 9.0003V8.92529L1.0415 8.98364L1.02482 9.0003Z" fill="#383738"/>
<path d="M40.9686 20.4187V20.5437C40.9686 20.6187 40.9686 20.627 41.0102 20.5437C41.0518 20.6354 41.2265 20.4437 41.2847 20.502C41.343 20.5604 41.2099 20.727 41.2847 20.677C41.3596 20.627 41.4095 20.677 41.4594 20.7354C41.4012 20.9104 41.3929 21.0438 41.4594 21.1021C41.4473 21.1562 41.4306 21.2092 41.4095 21.2605C41.4095 21.2605 41.4844 21.2605 41.501 21.2605C41.5176 21.2605 41.6757 21.2605 41.7173 21.3271C41.7589 21.3938 41.8753 21.2188 41.9169 21.2855C41.9396 21.3434 41.9674 21.3992 42.0001 21.4522C42.0001 21.4522 42.0833 21.4522 42.1498 21.4522C42.2912 21.4522 42.3578 21.5355 42.4742 21.5688C42.5907 21.6022 42.6406 21.7272 42.6739 21.8522C42.7071 21.9772 42.9068 21.7522 42.965 21.8522C43.0232 21.9522 42.9151 22.2106 43.0149 22.2689C43.1147 22.3273 43.2562 22.1606 43.3144 22.1856C43.3834 22.1943 43.4533 22.1943 43.5223 22.1856C43.5889 22.1856 43.5972 22.2273 43.5223 22.3356C43.4475 22.444 43.4558 22.5523 43.5806 22.5357H43.722C43.7039 22.6348 43.7039 22.7365 43.722 22.8357C43.7339 22.8732 43.7571 22.9061 43.7883 22.93C43.8196 22.9538 43.8574 22.9675 43.8967 22.9691C43.9207 22.9668 43.945 22.9693 43.9681 22.9764C43.9911 22.9836 44.0126 22.9952 44.0311 23.0107C44.0497 23.0262 44.065 23.0452 44.0762 23.0667C44.0874 23.0882 44.0942 23.1116 44.0963 23.1357C44.0963 23.1858 44.1379 23.2108 44.1628 23.2608C44.2456 23.2128 44.3236 23.157 44.3957 23.0941C44.4969 22.9947 44.6236 22.9255 44.7618 22.894C44.8533 22.894 44.8699 22.894 44.8782 22.9941C44.8865 23.0941 44.9531 22.9941 45.003 22.9941V23.1357H45.1943C45.1943 23.2691 45.1943 23.3774 45.1943 23.5108C45.1943 23.6442 45.1943 23.7525 45.2858 23.7525C45.3773 23.7525 45.2858 23.8442 45.3357 23.9025C45.3856 23.9609 45.3357 24.0359 45.3357 24.0859L45.4355 24.3443C45.5936 24.2859 45.5936 24.2859 45.6518 24.3443L45.8764 24.4943C45.7766 24.6943 45.8015 24.7943 45.8764 24.8443C45.9513 24.8943 45.8764 24.8943 45.8764 24.9277L45.5021 25.6445C45.2858 25.7945 45.0862 26.0028 44.8699 26.1279C44.6536 26.2529 44.5039 26.3196 44.4041 26.2112C44.3737 26.2075 44.343 26.2075 44.3126 26.2112L44.1212 26.3612C44.0751 26.3112 44.0359 26.2551 44.0048 26.1945C43.9046 25.9989 43.8559 25.7809 43.8634 25.5611C43.8634 25.4611 43.8634 25.4944 43.6721 25.5611C43.5318 25.6265 43.4026 25.7137 43.2894 25.8195L43.148 25.6695C42.965 25.7778 42.8486 25.7611 42.782 25.6278C42.7155 25.4944 42.5574 25.5028 42.3661 25.6278C42.3254 25.6988 42.2781 25.7658 42.2247 25.8278C42.0833 25.8945 41.9169 26.0612 41.7921 26.0612C41.6674 26.0612 41.659 25.8945 41.6923 25.7361C41.7256 25.5778 41.6923 25.5444 41.6091 25.5028C41.5834 25.4886 41.5634 25.4658 41.5527 25.4384C41.5421 25.4109 41.5414 25.3806 41.5509 25.3527C41.5925 25.1527 41.5509 25.0444 41.3762 25.0694C41.2015 25.0944 41.2847 25.0694 41.3097 24.936C41.3097 24.8777 41.3097 24.7693 41.1849 24.8443C41.0601 24.9193 41.135 24.8443 41.11 24.8443L40.8189 24.6776C40.8124 24.6616 40.8124 24.6437 40.8189 24.6276C40.8189 24.4443 40.8189 24.3443 40.6525 24.3443C40.5555 24.3287 40.4624 24.2947 40.378 24.2442L40.428 24.0776C40.3864 24.0275 40.3864 23.9275 40.2949 23.9442C40.2765 23.9421 40.2595 23.9333 40.2472 23.9195C40.2349 23.9056 40.2282 23.8877 40.2283 23.8692C40.2283 23.7858 40.2283 23.7275 40.1451 23.7108C40.062 23.6942 40.1451 23.5108 40.0619 23.5191C39.9788 23.5275 39.854 23.7358 39.8207 23.6108C39.7874 23.4858 39.6627 23.6692 39.6211 23.6608C39.5947 23.5258 39.5614 23.3923 39.5213 23.2608C39.5213 23.2191 39.4714 23.1941 39.4381 23.1774L39.2135 23.1274C39.1814 23.1172 39.1471 23.1165 39.1146 23.1254C39.0822 23.1342 39.0529 23.1523 39.0305 23.1774C38.8891 23.3108 38.8225 23.2691 38.7643 23.2191C38.7061 23.1691 38.6811 23.1774 38.6063 23.2191C38.5712 23.2361 38.5329 23.2449 38.494 23.2449C38.4551 23.2449 38.4167 23.2361 38.3817 23.2191C38.2486 23.1441 38.1654 23.0024 38.0073 22.9691C37.8493 22.9357 37.9408 22.894 37.9158 22.844L37.8659 22.7273C37.6497 22.9024 37.6497 22.9024 37.6164 22.769V22.6523C37.6164 22.6523 37.4999 22.7524 37.4583 22.7023C37.4421 22.654 37.4393 22.6022 37.45 22.5523C37.4999 22.3523 37.45 22.2773 37.3169 22.2439C37.245 22.228 37.1815 22.186 37.1385 22.126C37.0955 22.066 37.0761 21.9923 37.084 21.9189C37.084 21.7605 36.9343 21.8105 36.8761 21.7355C36.718 21.8772 36.6265 21.7855 36.4768 21.8772C36.4768 21.6522 36.4768 21.5438 36.2772 21.6105C36.0775 21.6772 36.1191 21.6939 36.1524 21.6105C36.1857 21.5272 36.0442 21.5605 36.0858 21.4438C36.1117 21.3848 36.12 21.3196 36.1097 21.256C36.0994 21.1924 36.0708 21.1331 36.0276 21.0854H35.9611L35.8612 21.1771C35.7198 21.2771 35.6699 21.2688 35.6533 21.1271V21.0104C35.5566 21.023 35.4588 21.023 35.3621 21.0104C35.3213 20.9932 35.2775 20.9844 35.2332 20.9844C35.1889 20.9844 35.1451 20.9932 35.1043 21.0104C35.1043 21.0104 35.1043 20.9687 35.1043 20.9437C35.1043 20.9187 35.1043 20.8687 35.0377 20.8771C34.9712 20.8854 34.9546 20.8854 34.9546 20.8854C34.7799 20.8854 34.7216 20.677 34.5137 20.7437C34.4638 20.5687 34.2641 20.602 34.2142 20.427L34.1477 20.2936H34.1227C33.8981 20.452 33.7651 20.402 33.6902 20.2436C33.6716 20.2151 33.6457 20.1921 33.6153 20.177C33.5488 20.177 33.6153 20.0853 33.6153 19.9936L33.6652 19.8686C33.5737 19.8186 33.582 19.8186 33.5571 19.6769C33.5382 19.5665 33.5104 19.4577 33.4739 19.3518C33.3575 19.3518 33.2077 19.4352 33.1162 19.3518C33.0247 19.2685 32.6421 19.2685 32.3842 19.2852C32.1264 19.3018 32.2012 19.2852 32.1347 19.2852C32.095 19.2592 32.0587 19.2284 32.0265 19.1935C31.9683 19.1185 31.9267 19.0268 31.8685 18.9601C31.8103 18.8934 31.7604 18.9101 31.6689 19.0185C31.6478 19.0447 31.6225 19.0673 31.594 19.0851L31.4526 18.8934C31.5179 18.6817 31.5179 18.4551 31.4526 18.2433C31.4526 18.06 31.3528 18.0766 31.228 18.035V18.2683L30.8869 18.4434V18.2517C30.7262 18.2711 30.5724 18.3283 30.4378 18.4184C30.1965 18.5684 30.2048 18.5517 30.2132 18.26C30.2178 18.2437 30.2178 18.2263 30.2132 18.21H30.0551C30.0551 18.21 30.0052 18.21 30.0052 18.16C30.0052 17.9933 29.8971 17.935 29.8971 17.7599C29.8937 17.7286 29.8839 17.6983 29.8681 17.671C29.8523 17.6437 29.831 17.6201 29.8056 17.6016C29.8056 17.5432 29.7141 17.5099 29.6725 17.4599C29.701 17.417 29.7208 17.3688 29.7307 17.3182C29.7469 17.2638 29.7469 17.2059 29.7307 17.1515C29.7307 17.1098 29.6309 17.1515 29.581 17.2432C29.5311 17.3349 29.3813 17.3599 29.3231 17.3349C29.2649 17.3099 29.2316 17.2515 29.1567 17.2432C29.0819 17.2349 29.0902 17.1598 29.1567 17.0432C29.2233 16.9265 29.0819 17.0432 29.007 17.0432C29.0358 16.9791 29.0455 16.9082 29.0352 16.8387C29.0249 16.7693 28.9949 16.7043 28.9488 16.6514C28.8923 16.6166 28.8305 16.5912 28.7658 16.5764C28.6826 16.5764 28.6244 16.4931 28.6161 16.343C28.6077 16.193 28.6161 16.0013 28.5495 15.943C28.4473 15.9758 28.3407 15.9926 28.2334 15.993C28.1837 15.9869 28.1357 15.9704 28.0927 15.9446C28.0497 15.9187 28.0127 15.8841 27.9839 15.843C27.909 15.7013 27.7759 15.6596 27.6678 15.5846C27.5596 15.5096 27.543 15.5846 27.4598 15.6346C27.3766 15.6846 27.3018 15.718 27.2602 15.6346C27.2193 15.5871 27.1856 15.5337 27.1604 15.4763C27.1473 15.4243 27.1473 15.3699 27.1604 15.3179C27.1604 15.2596 27.1604 15.1762 27.1188 15.1595L26.7195 15.3846C26.7195 15.2429 26.7195 15.0262 26.47 15.1179C26.4284 14.9678 26.2786 15.0095 26.1539 15.0178C26.0291 15.0262 25.9875 15.0178 26.0125 14.8595V14.8095C25.9788 14.8168 25.9437 14.8144 25.9114 14.8026C25.879 14.7908 25.8506 14.7701 25.8295 14.7428C25.815 14.7366 25.7994 14.7334 25.7837 14.7334C25.768 14.7334 25.7524 14.7366 25.738 14.7428C25.738 14.7428 25.6298 14.7428 25.6132 14.7428C25.5987 14.6825 25.5987 14.6197 25.6132 14.5594C25.5217 14.5594 25.4052 14.6261 25.3636 14.5594C25.322 14.4928 25.3636 14.2594 25.3636 14.1927C25.3636 14.126 25.3636 13.9344 25.3636 13.8343C25.2674 13.9299 25.1409 13.9889 25.006 14.001C24.8729 14.001 24.8895 13.801 24.8063 13.7427C24.7231 13.6843 24.6815 13.8593 24.6483 13.851C24.615 13.8427 24.3654 13.851 24.3405 13.626C24.3155 13.4009 24.3405 13.4593 24.224 13.4593C24.1076 13.4593 23.9828 13.3593 23.8248 13.4593L23.7416 13.1926C23.6251 13.1926 23.4504 13.2759 23.3922 13.1342C23.3922 13.1342 23.334 13.1342 23.309 13.1342C23.1177 13.1342 23.0262 13.0592 23.0595 12.7925C23.078 12.6978 23.0602 12.5996 23.0096 12.5175C22.9433 12.5094 22.8762 12.5094 22.8099 12.5175C22.7517 12.5175 22.6852 12.6092 22.6186 12.6425C22.5913 12.6492 22.5628 12.6492 22.5354 12.6425C22.4273 12.6425 22.3774 12.6425 22.3441 12.5091C22.3108 12.3758 22.3441 12.4091 22.2693 12.3925C22.1944 12.3758 22.1694 12.3925 22.1112 12.3925L22.236 12.0257C22.3373 11.9001 22.4059 11.7511 22.4356 11.5923C22.5145 11.5098 22.6157 11.4519 22.7268 11.4256H22.7767V11.709C22.8515 11.709 22.943 11.6173 22.9846 11.6507C23.0262 11.684 23.1094 11.6507 23.1843 11.6507C23.2591 11.6507 23.4837 11.5423 23.6085 11.5923C23.7333 11.6423 23.6667 11.5923 23.7 11.534L23.7665 11.3173C23.8248 11.2756 23.8747 11.2173 23.9329 11.1839C23.9911 11.1506 24.2324 10.9922 24.3488 11.0256C24.5384 11.0473 24.7118 11.1431 24.8313 11.2923L24.9394 11.4673C25.139 11.4006 25.139 11.4006 25.1723 11.5923C25.5217 11.1756 25.5383 11.1589 25.8378 11.0589C25.851 11.1696 25.851 11.2816 25.8378 11.3923C25.8378 11.5423 25.9625 11.534 25.9792 11.659L25.9293 12.0257C25.9293 12.1174 25.9293 12.2258 25.9293 12.2424C25.9293 12.2591 26.0707 12.1507 26.1372 12.0591C26.2038 11.9674 26.237 11.9424 26.287 11.884C26.3127 11.9149 26.3469 11.9376 26.3853 11.9494C26.4236 11.9613 26.4646 11.9617 26.5032 11.9507L26.6363 11.9424C26.6363 11.9924 26.7029 12.0507 26.7445 12.0924C26.7981 12.1311 26.8569 12.162 26.9191 12.1841C26.969 12.1841 27.0522 12.1841 27.0772 12.2341C27.1021 12.2841 27.2352 12.1841 27.2685 12.2341V12.3174L27.2103 12.4341C27.4515 12.4841 27.4515 12.4841 27.4016 12.8509C27.6179 12.8509 27.6179 12.8509 27.7759 12.9759L28.3 12.6925C28.3 12.6925 28.3748 12.6258 28.3915 12.6342C28.4081 12.6425 28.6909 12.6342 28.8407 12.5591C28.7907 12.7675 28.8407 12.8759 28.8407 13.0426C28.843 13.0559 28.8488 13.0683 28.8576 13.0786C28.8664 13.0889 28.8778 13.0966 28.8906 13.1009L29.2982 13.2092V13.4509C29.4396 13.4509 29.6309 13.3426 29.6475 13.5676C29.6475 13.6593 29.5144 13.7677 29.5643 13.851C29.6831 13.7886 29.8053 13.7329 29.9303 13.6843C29.9964 13.673 30.0639 13.673 30.13 13.6843V14.051C30.1817 14.0437 30.2344 14.0489 30.2836 14.0663C30.3329 14.0837 30.3772 14.1128 30.4128 14.1511C30.5792 14.1094 30.5542 14.3094 30.5875 14.4094C30.6208 14.5094 30.7705 14.3594 30.8287 14.4094C30.8869 14.4594 30.9285 14.5261 30.9784 14.5928C31.202 14.5147 31.4453 14.5147 31.6689 14.5928C31.7188 14.5928 31.7853 14.5928 31.8352 14.5928C31.8851 14.5928 31.9766 14.4678 32.0598 14.4428C32.0099 14.6011 32.0598 14.5511 32.1679 14.5178C32.1679 14.6178 32.1679 14.7511 32.1679 14.8095C32.1679 14.8678 32.2428 15.1929 32.3426 15.3179C32.4075 15.4022 32.4659 15.4914 32.5173 15.5846C32.568 15.5457 32.6208 15.5095 32.6754 15.4763C32.7918 15.4262 32.9083 15.3929 32.9665 15.4763C33.0247 15.5596 33.1994 15.4763 33.2826 15.4763C33.3658 15.4763 33.424 15.3179 33.4989 15.3012H33.5654V15.5513C33.815 15.4179 33.8565 15.6429 33.9896 15.7013C34.2059 15.5013 34.2226 15.4929 34.3057 15.5929C34.3889 15.693 34.3057 15.6763 34.3806 15.7013C34.4555 15.7263 34.4388 15.7013 34.4721 15.7013C34.4721 15.7013 34.5386 15.7013 34.5553 15.7013C34.597 15.7539 34.6502 15.7962 34.7107 15.8251C34.7713 15.854 34.8376 15.8686 34.9046 15.868C35.0461 15.868 35.1292 15.968 35.1126 16.193C35.1077 16.3377 35.1303 16.4819 35.1791 16.6181C35.1791 16.6848 35.279 16.5597 35.3039 16.6181V16.9848L35.1542 17.1432C35.1834 17.1822 35.2085 17.224 35.2291 17.2682C35.2329 17.3237 35.2329 17.3794 35.2291 17.4349C35.5202 17.2932 35.62 17.2599 35.7365 17.3932C35.8529 17.5266 35.8862 17.4766 36.011 17.3932C36.041 17.3854 36.0725 17.3854 36.1025 17.3932L36.169 17.6016H36.4685C36.535 17.6016 36.5517 17.6516 36.5433 17.7266C36.535 17.8016 36.4435 17.7266 36.3603 17.8433C36.2772 17.96 36.4518 17.985 36.5849 17.8933C36.718 17.8016 36.6847 17.8099 36.6931 17.8933C36.7014 17.9766 36.8511 17.8516 36.8927 17.8933C36.9343 17.935 36.8178 18.1183 36.8927 18.1267C37.1423 17.8933 37.1423 17.8933 37.3668 17.8933C37.4168 17.8933 37.4583 17.8933 37.5166 17.8933C37.5748 17.8933 37.7828 18.01 37.7911 18.2017C37.7994 18.3934 37.8826 18.4017 37.8327 18.5767C37.7828 18.7517 37.8327 18.7267 37.9408 18.7101C37.9851 18.6845 38.0353 18.671 38.0864 18.671C38.1375 18.671 38.1877 18.6845 38.2319 18.7101C38.2985 18.7851 38.4233 18.6684 38.5148 18.6684C38.5106 18.7044 38.5106 18.7408 38.5148 18.7768C38.5148 18.9434 38.5564 18.9684 38.6894 19.0018C38.8225 19.0351 38.731 19.0018 38.6894 19.0018C38.6479 19.0018 38.756 19.1351 38.7477 19.2268C38.7394 19.3185 38.8225 19.4602 38.9639 19.4352H39.1054C39.1054 19.5852 39.1054 19.7269 39.2384 19.6769C39.3715 19.6269 39.2384 19.6769 39.2967 19.7269C39.3549 19.7769 39.4714 19.8853 39.671 19.6519L40.0287 19.4769C40.0287 19.4769 40.0786 19.4769 40.0786 19.5269C40.105 19.6617 40.105 19.8004 40.0786 19.9353C40.0786 19.9936 40.0786 20.0186 40.0786 20.0436C40.1167 20.099 40.1501 20.1576 40.1784 20.2186L40.245 20.177C40.403 20.0519 40.4945 20.0269 40.4695 20.227C40.5777 20.227 40.5527 20.4603 40.7025 20.427C40.8522 20.3937 40.7607 20.427 40.7856 20.477L40.9686 20.4187ZM38.2236 18.9851C38.2432 18.967 38.2575 18.944 38.2652 18.9184C38.2697 18.8685 38.2697 18.8183 38.2652 18.7684C38.1737 18.8768 38.207 18.9268 38.2236 18.9851Z" fill="#383738"/>
<path d="M42.1664 21.4855L42.1831 21.4438V21.4772L42.1664 21.4855Z" fill="#383738"/>
<path d="M41.0017 20.452C41.0017 20.3936 41.0017 20.3936 41.0017 20.452H41.0518H41.0017Z" fill="#383738"/>
<path d="M41.0518 20.485L41.0018 20.4517L41.0185 20.4434L40.9519 20.5434L40.9603 20.5267L41.0018 20.56L40.9935 20.5684L41.0518 20.4684V20.485Z" fill="#383738"/>
<path d="M41.4593 20.752H41.4927L41.4593 20.7603V20.752Z" fill="#383738"/>
<path d="M31.4443 18.2681L31.411 18.2764L31.4443 18.2598V18.2681Z" fill="#383738"/>
</svg>
