<svg width="90" height="101" fill="none" xmlns="http://www.w3.org/2000/svg">
  <mask id="a" maskUnits="userSpaceOnUse" x="0" y="0" width="90" height="101" fill="#000">
    <path fill="#fff" d="M0 0h90v101H0z"/>
    <path d="M4.4 50.9l.8.2c.2 0 .4 0 .6.2 1 .2 1.3.5 2.2.7l1.2.1 1.8.4c.8 0 1.6 0 2.4.2h.5l1 .2 2.2.6c.6.1.7.3 1.4.5l1.7.4c.4 0 .7.2 1 .4 1 .4 2.2.7 3.2 1.2l3.2 1.2 2 1.2c1 .3 1.8.7 2.6 1.2l1.6 1.3 1.4 1c.3.4.6.6 1 .8.4.2.9.5 1.2 1l.7.8a8.7 8.7 0 011.8 1.9l.6.9.7 1.1a27 27 0 001.3 2.3c.2.3.2.7.3 1a12.7 12.7 0 001 3.3l.1.8.4 1 .2 1.4.7 2.3c.2.7.4 1.5.4 2.2l.2 1.4a19.8 19.8 0 01.4 5.4l-.1 2.9a6 6 0 010 2.2v.7l.6 1.3c.3-1 .6-1.3.8-2.4.3-1.2.5-2.4.5-3.6v-1l.2-.8-.1-2c-.1-1.8-.3-3.5-.7-5.2-.2-.6-.2-1.1-.2-1.7V78l-.6-2.1a16.4 16.4 0 00-.6-2.5l-.3-1c-.6-1.1-1-2.3-1.3-3.5 0 0 .2.1.1-.1a16 16 0 00-1-2.4c-.5-.8-1.1-1.6-1.9-2.4l-1.5-1.6-1-1-2.8-2.2c-.3-.4-.7-.7-1.2-.9l.2.2-.1-.1-1.4-1-.6-.4a34 34 0 00-3.3-1.9l-.4-.1-3-1.3-3-1.1-.6-.1.3.1H23l-2-.7-1-.2-1.7-.4c-.7-.2-1-.1-1.9-.4-.4-.3-1-.5-1.6-.5l-1.4-.4-3.2-.4-1.3-.2a38.3 38.3 0 01-3.2-1l-.1-.2-.1.1-.1.2-.3.2H5l.1.2.2.4.2.3.3-.1h1.3l1.8.1 5 .2h1.5l1.1-.2c.7.2 1.4.3 2.2.1h.9l.5-.1a5.7 5.7 0 001.8-.1l3-.6c1.4-.2 2.8-.5 4-1l3-1 2.8-.8 3-1.9c.5-.1.9-.4 1.2-.7l1.3-1.2 1.9-2 .3-.3.3-.2c.7-.5 1.2-1.2 1.6-1.9l.4-.6a23.8 23.8 0 003.3-5.8l.4-.6c.7-1.5 1.1-3.2 1.7-4.7.3-1.5.8-3.1 1-4.6l.2-1.5.1-.6c.5-1.4.7-2.8.7-4.3l.1-1a2.5 2.5 0 00-.1-1.5v-2.1L52 8l.2-3.2v-.7H51.6l-.2-.2h-.2-.2v-.1h-.2l-1.1.1v.5l-.4 1.7-.8 3.4-.4 2.4-.1 1.6-.2 2.8c0 .5 0 1-.2 1.4l-.1.4v2.5l.4 3.6v-.1c.1 1 .2 2.2.1 3.2l-.2-1.2-.1 2.2.3 1.3.2 3.3c0 1 .2 2 .7 3l.2.4a21.6 21.6 0 00.8 2.3c.5 1 1 2.1 1.7 3l1 1.6 1.4 1.8h.2l.8.7.6.7c0 .3.8 1 1.4 1.4l1.8 1.2c.5.3 1 .6 1.5.7l1.4.7 2.8.7 2 .6c1 .2 1.8.4 2.8.4h3l2.6.4H78l4.6-.2h1.6l.8.2h.8l.2-.3V52l.2-.3.1-.1-.2-.2v-.2a2.7 2.7 0 01-.3-.5h-.2l-.3.2-1 .2a4 4 0 01-1.2.2h-2.4c-1.3.2-2.6.4-3.8.4-1.3.3-2.5.4-3.6.5-.8 0-1.5.2-2.2.5l-.6.2c-.7 0-1.4.2-2 .4l-1 .3-1.2.3-1.2.5-2.4.8-2 1-1.9 1.3-2.2 1c-1 .6-1.9 1.3-2.7 2l-.8.6-1.6 1.3c-.6.6-1 1.1-1.4 1.8L49 66c-.7 1.2-1.2 2.5-1.7 3.8l-.5 2.2c-.3 1.2-.5 2.4-.6 3.7l-.2.7c-.2 1.4-.3 2.8 0 4.2v3.8l-.2 1v5.9l.2.7c.2-.5.3.2.4.5.2-.6.3-1.2.3-1.9v-.5l-.2-1.6v-1.7l.1-1.9.3-3.6v-.6l.2.5.2-.7.5-3A58 58 0 0149 70l.6-1.3.4-1.2 1-.8 1.3-1.5a16.2 16.2 0 013-3.4 20.5 20.5 0 012.3-2c.6-.4.7-.3.9-.3h.5a15.1 15.1 0 014-1.8l1.5-.6 2-.7 1.6-.5 1.8-.4v-.2a17 17 0 004.2-1l4-.6 2.9.2h.5c1.6-.2 2.6 0 3.8-.1l.4-.1.8-.3a3.4 3.4 0 00.6-.4h.2l.2-.4.2-.3.1-.6v-.5l-.2-.3-.1-.1a1.8 1.8 0 00-.5-.5l-.4-.1-.7-.1h-2.1l-4.3.2-1.4.2a36 36 0 00-3.8-.1c-.3 0 .1.2-.8.2l-2.4-.5-1.4-.3-2.2-.1-3-.8c-1-.5-1.8-.7-2.6-1l-1.7-1-2-1.2a21.7 21.7 0 01-3.4-4.3l-.7-1.3c-.3-.6-.2-.5-.3-1l-.6-1.2-.7-1.3a28.2 28.2 0 01-2-7l.1-.8V26c-.2-1.2 0-1.9 0-3l.1-1v-.4-1.5c.2-1.3.1-3 .3-4.5.3-.7.4-1.4.4-2.1l.1-1.3.2-.6v.1l.1-.7c.1-1.4.4-2.7.7-4l.3-2v-.7-.6-.5a2.2 2.2 0 00-1-1c-.1-.2-.3-.2-.6-.3h-.5a2 2 0 00-1.5.9V3a2.6 2.6 0 00-.2.6v1a50.8 50.8 0 01.3 6.5l.2-.4v2.6l-.7 4.2c0 .9-.2 1.7-.5 2.5l-.1.7-.3 1.8a49.2 49.2 0 01-1 3.8c0-.2.3-1 .4-.9a7 7 0 01-.8 2c0 .3-.2.5-.3.8l-.7 1.5a7 7 0 01-.4 1.4l-1.6 2.3-.7 1.2-2.3 3.2c-.5.7-1.2 1.4-1.5 2l-1.3 1-2.2 1.3-1.9 1-.5.3c-.8.5-1.6.9-2.5 1.1l-.4.1-1.6.7c-1 .4-2 .7-3 .8l-1 .1c-.9.3-1.7.5-2.6.5h-.7a69.6 69.6 0 01-4.9-.2h-.8l-2.5.3h-2.8-.3c-.8-.2-1.6-.2-2.3-.1H6L5 47c-.2 0-.5 0-.7.2-.4.1-.8.4-1 .8a1.8 1.8 0 00-.2 2l.3.4 1 .7v-.1zm30.7-8a2 2 0 01-.4.1l.8-.6c.4 0-.1.2-.4.4zm16 20l.2-.2-.1.2zm-9.4-26.5v-.1h.1l-.1.1z"/>
  </mask>
  <path d="M4.4 50.9l.8.2c.2 0 .4 0 .6.2 1 .2 1.3.5 2.2.7l1.2.1 1.8.4c.8 0 1.6 0 2.4.2h.5l1 .2 2.2.6c.6.1.7.3 1.4.5l1.7.4c.4 0 .7.2 1 .4 1 .4 2.2.7 3.2 1.2l3.2 1.2 2 1.2c1 .3 1.8.7 2.6 1.2l1.6 1.3 1.4 1c.3.4.6.6 1 .8.4.2.9.5 1.2 1l.7.8a8.7 8.7 0 011.8 1.9l.6.9.7 1.1a27 27 0 001.3 2.3c.2.3.2.7.3 1a12.7 12.7 0 001 3.3l.1.8.4 1 .2 1.4.7 2.3c.2.7.4 1.5.4 2.2l.2 1.4a19.8 19.8 0 01.4 5.4l-.1 2.9a6 6 0 010 2.2v.7l.6 1.3c.3-1 .6-1.3.8-2.4.3-1.2.5-2.4.5-3.6v-1l.2-.8-.1-2c-.1-1.8-.3-3.5-.7-5.2-.2-.6-.2-1.1-.2-1.7V78l-.6-2.1a16.4 16.4 0 00-.6-2.5l-.3-1c-.6-1.1-1-2.3-1.3-3.5 0 0 .2.1.1-.1a16 16 0 00-1-2.4c-.5-.8-1.1-1.6-1.9-2.4l-1.5-1.6-1-1-2.8-2.2c-.3-.4-.7-.7-1.2-.9l.2.2-.1-.1-1.4-1-.6-.4a34 34 0 00-3.3-1.9l-.4-.1-3-1.3-3-1.1-.6-.1.3.1H23l-2-.7-1-.2-1.7-.4c-.7-.2-1-.1-1.9-.4-.4-.3-1-.5-1.6-.5l-1.4-.4-3.2-.4-1.3-.2a38.3 38.3 0 01-3.2-1l-.1-.2-.1.1-.1.2-.3.2H5l.1.2.2.4.2.3.3-.1h1.3l1.8.1 5 .2h1.5l1.1-.2c.7.2 1.4.3 2.2.1h.9l.5-.1a5.7 5.7 0 001.8-.1l3-.6c1.4-.2 2.8-.5 4-1l3-1 2.8-.8 3-1.9c.5-.1.9-.4 1.2-.7l1.3-1.2 1.9-2 .3-.3.3-.2c.7-.5 1.2-1.2 1.6-1.9l.4-.6a23.8 23.8 0 003.3-5.8l.4-.6c.7-1.5 1.1-3.2 1.7-4.7.3-1.5.8-3.1 1-4.6l.2-1.5.1-.6c.5-1.4.7-2.8.7-4.3l.1-1a2.5 2.5 0 00-.1-1.5v-2.1L52 8l.2-3.2v-.7H51.6l-.2-.2h-.2-.2v-.1h-.2l-1.1.1v.5l-.4 1.7-.8 3.4-.4 2.4-.1 1.6-.2 2.8c0 .5 0 1-.2 1.4l-.1.4v2.5l.4 3.6v-.1c.1 1 .2 2.2.1 3.2l-.2-1.2-.1 2.2.3 1.3.2 3.3c0 1 .2 2 .7 3l.2.4a21.6 21.6 0 00.8 2.3c.5 1 1 2.1 1.7 3l1 1.6 1.4 1.8h.2l.8.7.6.7c0 .3.8 1 1.4 1.4l1.8 1.2c.5.3 1 .6 1.5.7l1.4.7 2.8.7 2 .6c1 .2 1.8.4 2.8.4h3l2.6.4H78l4.6-.2h1.6l.8.2h.8l.2-.3V52l.2-.3.1-.1-.2-.2v-.2a2.7 2.7 0 01-.3-.5h-.2l-.3.2-1 .2a4 4 0 01-1.2.2h-2.4c-1.3.2-2.6.4-3.8.4-1.3.3-2.5.4-3.6.5-.8 0-1.5.2-2.2.5l-.6.2c-.7 0-1.4.2-2 .4l-1 .3-1.2.3-1.2.5-2.4.8-2 1-1.9 1.3-2.2 1c-1 .6-1.9 1.3-2.7 2l-.8.6-1.6 1.3c-.6.6-1 1.1-1.4 1.8L49 66c-.7 1.2-1.2 2.5-1.7 3.8l-.5 2.2c-.3 1.2-.5 2.4-.6 3.7l-.2.7c-.2 1.4-.3 2.8 0 4.2v3.8l-.2 1v5.9l.2.7c.2-.5.3.2.4.5.2-.6.3-1.2.3-1.9v-.5l-.2-1.6v-1.7l.1-1.9.3-3.6v-.6l.2.5.2-.7.5-3A58 58 0 0149 70l.6-1.3.4-1.2 1-.8 1.3-1.5a16.2 16.2 0 013-3.4 20.5 20.5 0 012.3-2c.6-.4.7-.3.9-.3h.5a15.1 15.1 0 014-1.8l1.5-.6 2-.7 1.6-.5 1.8-.4v-.2a17 17 0 004.2-1l4-.6 2.9.2h.5c1.6-.2 2.6 0 3.8-.1l.4-.1.8-.3a3.4 3.4 0 00.6-.4h.2l.2-.4.2-.3.1-.6v-.5l-.2-.3-.1-.1a1.8 1.8 0 00-.5-.5l-.4-.1-.7-.1h-2.1l-4.3.2-1.4.2a36 36 0 00-3.8-.1c-.3 0 .1.2-.8.2l-2.4-.5-1.4-.3-2.2-.1-3-.8c-1-.5-1.8-.7-2.6-1l-1.7-1-2-1.2a21.7 21.7 0 01-3.4-4.3l-.7-1.3c-.3-.6-.2-.5-.3-1l-.6-1.2-.7-1.3a28.2 28.2 0 01-2-7l.1-.8V26c-.2-1.2 0-1.9 0-3l.1-1v-.4-1.5c.2-1.3.1-3 .3-4.5.3-.7.4-1.4.4-2.1l.1-1.3.2-.6v.1l.1-.7c.1-1.4.4-2.7.7-4l.3-2v-.7-.6-.5a2.2 2.2 0 00-1-1c-.1-.2-.3-.2-.6-.3h-.5a2 2 0 00-1.5.9V3a2.6 2.6 0 00-.2.6v1a50.8 50.8 0 01.3 6.5l.2-.4v2.6l-.7 4.2c0 .9-.2 1.7-.5 2.5l-.1.7-.3 1.8a49.2 49.2 0 01-1 3.8c0-.2.3-1 .4-.9a7 7 0 01-.8 2c0 .3-.2.5-.3.8l-.7 1.5a7 7 0 01-.4 1.4l-1.6 2.3-.7 1.2-2.3 3.2c-.5.7-1.2 1.4-1.5 2l-1.3 1-2.2 1.3-1.9 1-.5.3c-.8.5-1.6.9-2.5 1.1l-.4.1-1.6.7c-1 .4-2 .7-3 .8l-1 .1c-.9.3-1.7.5-2.6.5h-.7a69.6 69.6 0 01-4.9-.2h-.8l-2.5.3h-2.8-.3c-.8-.2-1.6-.2-2.3-.1H6L5 47c-.2 0-.5 0-.7.2-.4.1-.8.4-1 .8a1.8 1.8 0 00-.2 2l.3.4 1 .7v-.1zm30.7-8a2 2 0 01-.4.1l.8-.6c.4 0-.1.2-.4.4zm16 20l.2-.2-.1.2zm-9.4-26.5v-.1h.1l-.1.1z" fill="#FFD25F"/>
  <path d="M4.4 50.9l.8.2h0c.2 0 .4 0 .6.2h0c1 .2 1.3.5 2.2.7l1.2.1 1.8.4h0c.8 0 1.6 0 2.4.2h.5l1 .2 2.2.6c.6.1.7.3 1.4.5l1.7.4c.4 0 .7.2 1 .4h0c1 .4 2.2.7 3.2 1.2l3.2 1.2 2 1.2c1 .3 1.8.7 2.6 1.2l1.6 1.3 1.4 1c.3.4.6.6 1 .8.4.2.9.5 1.2 1l.7.8a8.7 8.7 0 011.8 1.9l.6.9.7 1.1a27 27 0 001.3 2.3c.2.3.2.7.3 1a12.7 12.7 0 001 3.3l.1.8.4 1 .2 1.4.7 2.3c.2.7.4 1.5.4 2.2l.2 1.4a19.8 19.8 0 01.4 5.4l-.1 2.9a6 6 0 010 2.2v.7l.6 1.3c.3-1 .6-1.3.8-2.4.3-1.2.5-2.4.5-3.6v-1l.2-.8-.1-2c-.1-1.8-.3-3.5-.7-5.2-.2-.6-.2-1.1-.2-1.7V78l-.6-2.1a16.4 16.4 0 00-.6-2.5l-.3-1c-.6-1.1-1-2.3-1.3-3.5 0 0 .2.1.1-.1a16 16 0 00-1-2.4c-.5-.8-1.1-1.6-1.9-2.4l-1.5-1.6-1-1-2.8-2.2c-.3-.4-.7-.7-1.2-.9l.2.2-.1-.1-1.4-1-.6-.4a34 34 0 00-3.3-1.9l-.4-.1-3-1.3-3-1.1-.6-.1.3.1H23l-2-.7-1-.2-1.7-.4c-.7-.2-1-.1-1.9-.4-.4-.3-1-.5-1.6-.5l-1.4-.4-3.2-.4-1.3-.2a38.3 38.3 0 01-3.2-1l-.1-.2s0 0 0 0l-.1.1-.1.2-.3.2H5s0 0 0 0l.1.2.2.4.2.3.3-.1h1.3l1.8.1 5 .2h1.5l1.1-.2c.7.2 1.4.3 2.2.1h.9l.5-.1a5.7 5.7 0 001.8-.1l3-.6c1.4-.2 2.8-.5 4-1l3-1 2.8-.8 3-1.9c.5-.1.9-.4 1.2-.7l1.3-1.2 1.9-2 .3-.3.3-.2c.7-.5 1.2-1.2 1.6-1.9l.4-.6a23.8 23.8 0 003.3-5.8l.4-.6c.7-1.5 1.1-3.2 1.7-4.7.3-1.5.8-3.1 1-4.6l.2-1.5.1-.6c.5-1.4.7-2.8.7-4.3l.1-1a2.5 2.5 0 00-.1-1.5v-2.1L52 8l.2-3.2v-.7 0H51.6l-.2-.2h-.2-.2v-.1h-.2l-1.1.1v.5l-.4 1.7-.8 3.4-.4 2.4-.1 1.6-.2 2.8c0 .5 0 1-.2 1.4l-.1.4v2.5l.4 3.6v-.1c.1 1 .2 2.2.1 3.2l-.2-1.2-.1 2.2.3 1.3.2 3.3c0 1 .2 2 .7 3l.2.4a21.6 21.6 0 00.8 2.3c.5 1 1 2.1 1.7 3l1 1.6 1.4 1.8h.2l.8.7.6.7c0 .3.8 1 1.4 1.4l1.8 1.2c.5.3 1 .6 1.5.7l1.4.7 2.8.7 2 .6c1 .2 1.8.4 2.8.4h3l2.6.4H78l4.6-.2h1.6l.8.2h.8s0 0 0 0l.2-.3V52l.2-.3.1-.1s0 0 0 0l-.2-.2v-.2a2.7 2.7 0 01-.3-.5s0 0 0 0h-.2l-.3.2-1 .2a4 4 0 01-1.2.2h-2.4c-1.3.2-2.6.4-3.8.4-1.3.3-2.5.4-3.6.5-.8 0-1.5.2-2.2.5l-.6.2c-.7 0-1.4.2-2 .4l-1 .3-1.2.3-1.2.5-2.4.8-2 1-1.9 1.3-2.2 1c-1 .6-1.9 1.3-2.7 2l-.8.6-1.6 1.3c-.6.6-1 1.1-1.4 1.8L49 66c-.7 1.2-1.2 2.5-1.7 3.8l-.5 2.2c-.3 1.2-.5 2.4-.6 3.7l-.2.7c-.2 1.4-.3 2.8 0 4.2v3.8l-.2 1v5.9l.2.7c.2-.5.3.2.4.5.2-.6.3-1.2.3-1.9v-.5l-.2-1.6v-1.7l.1-1.9.3-3.6v-.6l.2.5.2-.7.5-3A58 58 0 0149 70l.6-1.3.4-1.2 1-.8 1.3-1.5a16.2 16.2 0 013-3.4 20.5 20.5 0 012.3-2c.6-.4.7-.3.9-.3h.5a15.1 15.1 0 014-1.8l1.5-.6 2-.7 1.6-.5 1.8-.4s0 0 0 0v-.2a17 17 0 004.2-1l4-.6 2.9.2h.5c1.6-.2 2.6 0 3.8-.1l.4-.1.8-.3a3.4 3.4 0 00.6-.4h.2l.2-.4.2-.3.1-.6v-.5l-.2-.3-.1-.1a1.8 1.8 0 00-.5-.5l-.4-.1-.7-.1h-2.1l-4.3.2-1.4.2a36 36 0 00-3.8-.1c-.3 0 .1.2-.8.2l-2.4-.5-1.4-.3-2.2-.1-3-.8c-1-.5-1.8-.7-2.6-1l-1.7-1-2-1.2a21.7 21.7 0 01-3.4-4.3l-.7-1.3c-.3-.6-.2-.5-.3-1l-.6-1.2-.7-1.3a28.2 28.2 0 01-2-7l.1-.8V26c-.2-1.2 0-1.9 0-3l.1-1v-.4-1.5c.2-1.3.1-3 .3-4.5.3-.7.4-1.4.4-2.1l.1-1.3.2-.6v.1l.1-.7c.1-1.4.4-2.7.7-4l.3-2v-.7-.6-.5a2.2 2.2 0 00-1-1c-.1-.2-.3-.2-.6-.3h-.5a2 2 0 00-1.5.9V3a2.6 2.6 0 00-.2.6v1a50.8 50.8 0 01.3 6.5l.2-.4v2.6l-.7 4.2c0 .9-.2 1.7-.5 2.5l-.1.7-.3 1.8a49.2 49.2 0 01-1 3.8c0-.2.3-1 .4-.9a7 7 0 01-.8 2c0 .3-.2.5-.3.8l-.7 1.5a7 7 0 01-.4 1.4l-1.6 2.3-.7 1.2-2.3 3.2c-.5.7-1.2 1.4-1.5 2l-1.3 1-2.2 1.3-1.9 1-.5.3c-.8.5-1.6.9-2.5 1.1l-.4.1-1.6.7c-1 .4-2 .7-3 .8l-1 .1c-.9.3-1.7.5-2.6.5h-.7a69.6 69.6 0 01-4.9-.2h-.8l-2.5.3h-2.8-.3c-.8-.2-1.6-.2-2.3-.1H6L5 47c-.2 0-.5 0-.7.2-.4.1-.8.4-1 .8a1.8 1.8 0 00-.2 2l.3.4 1 .7v-.1zm30.7-8a2 2 0 01-.4.1s0 0 0 0l.8-.6c.4 0-.1.2-.4.4zm16 20h0l.2-.2s0 0 0 0l-.1.2zm-9.4-26.5h0v-.1h.1l-.1.1z" stroke="#FFD25F" stroke-width="2.4" mask="url(#a)"/>
  <path d="M21.5 54.1H21h0l-.1.9-.1.2H21.2v-.1l.3-1h0zM5.7 50.7l-.1 1-.2.1h.1v.1h.2l.4-.9.1-.1h0l-.2-.2h-.2 0zM5.5 50.7l-.2-.2h-.1a.6.6 0 01-.3 0l-.2-.2h-.2 0l-.3 1h0s0 0 0 0v.1a7.4 7.4 0 00.8.4h0s0 0 0 0v-.1l.6-1h-.1z" fill="#FFD25F" stroke="#FFD25F" stroke-width="1.2"/>
  <path d="M6 51.9l1.8-.7-1.9-.5h-.1v-.2H5L5 51h-.4v0H5v.3l-.2.3h0l-.2.7 1-.4.2.1V52h0l.2-.1zM11 51.8l-.2 1.2h.3l.3-1.1h-.2v-.1H11h0zM51.2 12.1h1l.1-.1s0 0 0 0h0v0-.2 0h-1.2v.3zM48.4 24l-1.1.1v.3h1.1v-.2h0V24z" fill="#FFD25F" stroke="#FFD25F" stroke-width="1.2"/>
</svg>
